<svg width="187" height="41" viewBox="0 0 187 41" fill="none" xmlns="http://www.w3.org/2000/svg">
<path d="M40.886 13.5C41.4292 13.5 41.6102 13.6857 41.6102 14.1857V25.5H47.7504C48.2784 25.5 48.4745 25.6857 48.4745 26.1857V27.1857C48.4745 27.6857 48.2784 27.8714 47.7504 27.8714H39.664C39.136 27.8714 38.9248 27.6857 38.9248 27.1857V14.1857C38.9248 13.6857 39.136 13.5 39.664 13.5H40.886Z" fill="#B5B5B5"/>
<path d="M53.8298 18.4857C53.8298 15.1857 56.0325 13.2 59.8644 13.2C63.6964 13.2 65.899 15.1857 65.899 18.4857V22.8857C65.899 26.1857 63.6813 28.1714 59.8644 28.1714C56.0475 28.1714 53.8298 26.1857 53.8298 22.8857V18.4857ZM63.3645 18.4857C63.3645 16.6286 62.1425 15.6286 59.9399 15.6286C57.7372 15.6286 56.5303 16.6429 56.5303 18.4857V22.9143C56.5303 24.7857 57.7372 25.7714 59.9399 25.7714C62.1425 25.7714 63.3645 24.7429 63.3645 22.9143V18.4857Z" fill="#B5B5B5"/>
<path d="M83.867 20C84.4553 20 84.5911 20.1857 84.5911 20.6857V23.4C84.6071 24.0393 84.4718 24.674 84.1951 25.2573C83.9183 25.8407 83.5073 26.358 82.992 26.7714C81.7122 27.7364 80.0985 28.2151 78.466 28.1143C74.5586 28.1143 72.4314 26.1286 72.4314 22.8286V18.4C72.4314 15.1429 74.6341 13.1429 78.466 13.1429C81.4833 13.1429 83.4445 14.2714 84.2743 16.5286C84.3208 16.6134 84.3457 16.7073 84.347 16.8027C84.3484 16.8983 84.3262 16.9929 84.2823 17.0787C84.2384 17.1647 84.1738 17.2399 84.0939 17.2981C84.0139 17.3563 83.9207 17.3961 83.8217 17.4143L82.645 17.8C82.132 17.9714 81.9208 17.8714 81.7398 17.3714C81.4898 16.7613 81.0322 16.2473 80.4393 15.911C79.8464 15.5747 79.1522 15.435 78.466 15.5143C76.2483 15.5143 75.0414 16.5286 75.0414 18.3714V22.9143C75.0414 24.7857 76.2634 25.7714 78.466 25.7714C80.6686 25.7714 82.0264 24.8143 82.0264 23.4143V22.3571H78.7527C78.2095 22.3571 78.0134 22.1571 78.0134 21.6571V20.6857C78.0134 20.1857 78.2095 20 78.7527 20H83.867Z" fill="#B5B5B5"/>
<path d="M90.8223 18.4857C90.8223 15.1857 93.0249 13.2 96.8569 13.2C100.689 13.2 102.891 15.1857 102.891 18.4857V22.8857C102.891 26.1857 100.674 28.1714 96.8569 28.1714C93.04 28.1714 90.8223 26.1857 90.8223 22.8857V18.4857ZM100.342 18.4857C100.342 16.6286 99.1198 15.6286 96.9323 15.6286C94.7447 15.6286 93.5077 16.6429 93.5077 18.4857V22.9143C93.5077 24.7857 94.7297 25.7714 96.9323 25.7714C99.1349 25.7714 100.342 24.7429 100.342 22.9143V18.4857Z" fill="#B5B5B5"/>
<path d="M109.997 13.9143C109.997 13.6 110.103 13.5 110.435 13.5H111.129C111.46 13.5 111.536 13.6 111.536 13.9143V27.4571C111.536 27.7714 111.536 27.8714 111.129 27.8714H110.435C110.103 27.8714 109.997 27.7714 109.997 27.4571V13.9143Z" fill="#B5B5B5"/>
<path d="M125.28 13.5C126.536 13.5 127.741 13.9726 128.629 14.8139C129.518 15.655 130.017 16.796 130.017 17.9857C130.017 19.1754 129.518 20.3164 128.629 21.1576C127.741 21.9989 126.536 22.4714 125.28 22.4714H120.754V27.4571C120.754 27.7714 120.678 27.8714 120.361 27.8714H119.652C119.336 27.8714 119.215 27.7714 119.215 27.4571V13.9143C119.215 13.6 119.336 13.5 119.652 13.5H125.28ZM125.144 21.0571C125.576 21.0571 126.003 20.9766 126.402 20.8201C126.801 20.6636 127.164 20.4341 127.469 20.145C127.775 19.8559 128.017 19.5124 128.182 19.1347C128.348 18.7569 128.433 18.3519 128.433 17.9429C128.433 17.5339 128.348 17.1289 128.182 16.751C128.017 16.3733 127.775 16.0299 127.469 15.7407C127.164 15.4516 126.801 15.2221 126.402 15.0656C126.003 14.9091 125.576 14.8286 125.144 14.8286H120.618V21.0571H125.144Z" fill="#B5B5B5"/>
<path d="M141.799 13.2143C142.964 13.0926 144.139 13.3299 145.15 13.8909C146.16 14.452 146.954 15.3069 147.411 16.3286C147.532 16.5571 147.411 16.7429 147.17 16.8571L146.506 17.1429C146.234 17.2429 146.129 17.2286 145.963 16.9571C145.621 16.1989 145.033 15.5631 144.285 15.142C143.536 14.7209 142.666 14.536 141.799 14.6143C139.249 14.6143 137.861 15.5714 137.861 17.2857C137.847 17.8096 138.032 18.321 138.385 18.7253C138.737 19.1296 139.231 19.3997 139.777 19.4857C140.589 19.7363 141.43 19.8899 142.282 19.9429C143.313 19.9949 144.33 20.1923 145.299 20.5286C146.043 20.7513 146.682 21.2093 147.111 21.8259C147.539 22.4424 147.731 23.1799 147.653 23.9143C147.653 26.5857 145.601 28.2 141.829 28.2C140.592 28.334 139.344 28.0626 138.292 27.4309C137.241 26.7993 136.45 25.8454 136.051 24.7286C136.024 24.6777 136.01 24.6219 136.009 24.565C136.008 24.5081 136.02 24.4519 136.044 24.4C136.069 24.3481 136.105 24.302 136.151 24.265C136.196 24.2279 136.25 24.2009 136.307 24.1857L136.971 23.9571C137.023 23.9369 137.08 23.9271 137.136 23.9286C137.193 23.93 137.248 23.9426 137.299 23.9654C137.35 23.9883 137.396 24.0209 137.433 24.0613C137.47 24.1017 137.498 24.1489 137.514 24.2C137.852 25.007 138.452 25.6913 139.228 26.1537C140.004 26.616 140.915 26.8324 141.829 26.7714C144.68 26.7714 146.084 25.8286 146.084 23.9143C146.111 23.4111 145.948 22.9153 145.624 22.515C145.301 22.1149 144.838 21.8361 144.318 21.7286C143.538 21.5081 142.733 21.3739 141.92 21.3286L140.29 21.1286C139.78 21.0261 139.277 20.8973 138.782 20.7429C138.293 20.603 137.837 20.375 137.439 20.0714C137.039 19.7283 136.723 19.306 136.515 18.8344C136.306 18.3629 136.21 17.8537 136.232 17.3429C136.338 14.8429 138.314 13.2143 141.799 13.2143Z" fill="#B5B5B5"/>
<path d="M155.784 22.9857C155.848 23.996 156.317 24.945 157.095 25.6389C157.874 26.3327 158.903 26.719 159.971 26.719C161.039 26.719 162.068 26.3327 162.846 25.6389C163.625 24.945 164.092 23.996 164.157 22.9857V13.9143C164.157 13.6 164.263 13.5 164.595 13.5H165.289C165.621 13.5 165.726 13.6 165.726 13.9143V22.9714C165.726 26.2143 163.705 28.1714 159.978 28.1714C156.252 28.1714 154.23 26.2143 154.23 22.9714V13.9143C154.23 13.6 154.336 13.5 154.653 13.5H155.362C155.679 13.5 155.784 13.6 155.784 13.9143V22.9857Z" fill="#B5B5B5"/>
<path d="M186.545 13.5C186.877 13.5 186.982 13.6 186.982 13.9143V27.4571C186.982 27.7714 186.877 27.8714 186.545 27.8714H185.911C185.595 27.8714 185.489 27.7714 185.489 27.4571V19.2143C185.489 18.015 185.575 16.817 185.745 15.6286H185.655C185.184 16.7153 184.634 17.7701 184.01 18.7857L180.767 24.2C180.728 24.294 180.658 24.3743 180.569 24.4304C180.48 24.4864 180.376 24.5157 180.269 24.5143H179.847C179.738 24.5149 179.632 24.4853 179.54 24.4296C179.45 24.3737 179.377 24.294 179.334 24.2L176.045 18.7286C175.461 17.7276 174.957 16.6866 174.536 15.6143H174.446C174.6 16.8136 174.681 18.0204 174.687 19.2286V27.4571C174.687 27.7714 174.581 27.8714 174.25 27.8714H173.661C173.329 27.8714 173.224 27.7714 173.224 27.4571V13.9143C173.224 13.6 173.329 13.5 173.661 13.5H174.204C174.328 13.4891 174.453 13.5147 174.56 13.5736C174.669 13.6324 174.755 13.7216 174.808 13.8286L180.088 22.7143L185.338 13.9143C185.504 13.6143 185.595 13.5714 185.926 13.5714L186.545 13.5Z" fill="#B5B5B5"/>
<path d="M14.0465 25.7V36.0286C14.0465 36.4246 13.8804 36.8043 13.5847 37.0841C13.2891 37.3641 12.8881 37.5214 12.4699 37.5214C12.0519 37.5214 11.6509 37.3641 11.3552 37.0841C11.0595 36.8043 10.8934 36.4246 10.8934 36.0286V25.7143C11.3324 26.0178 11.8586 26.1873 12.402 26.2C12.9943 26.216 13.5747 26.0396 14.0465 25.7ZM27.4734 22.7143C27.0733 22.7143 26.6895 22.8649 26.4066 23.1327C26.1238 23.4006 25.9648 23.764 25.9648 24.1429V25.9428C25.9648 26.3388 26.1309 26.7186 26.4265 26.9984C26.7221 27.2784 27.1231 27.4357 27.5413 27.4357C27.9595 27.4357 28.3605 27.2784 28.656 26.9984C28.9517 26.7186 29.1178 26.3388 29.1178 25.9428V24.2143C29.1296 24.0094 29.0946 23.8046 29.0152 23.6137C28.9359 23.4228 28.8141 23.2503 28.658 23.108C28.502 22.9657 28.3154 22.8568 28.1111 22.7888C27.9067 22.721 27.6891 22.6956 27.4734 22.7143ZM7.46876 29.6143C6.9259 29.5989 6.40038 29.4297 5.96011 29.1286V39.4857C5.96011 39.8836 6.127 40.2651 6.42408 40.5464C6.72115 40.8277 7.12406 40.9857 7.54419 40.9857C7.96432 40.9857 8.36723 40.8277 8.6643 40.5464C8.96138 40.2651 9.12827 39.8836 9.12827 39.4857V29.2C8.63562 29.5016 8.05435 29.6467 7.46876 29.6143ZM22.5552 19.6143C22.3508 19.6046 22.1465 19.6344 21.9546 19.7018C21.7629 19.7693 21.5876 19.873 21.4393 20.0066C21.2911 20.1403 21.1733 20.301 21.0927 20.4791C21.0123 20.6573 20.9708 20.8491 20.9711 21.0429V29C20.9711 29.3979 21.138 29.7794 21.435 30.0607C21.7322 30.342 22.1351 30.5 22.5552 30.5C22.9754 30.5 23.3783 30.342 23.6754 30.0607C23.9724 29.7794 24.1393 29.3979 24.1393 29V21.1428C24.1514 20.9367 24.1161 20.7306 24.0358 20.5386C23.9555 20.3466 23.8324 20.1733 23.6746 20.0307C23.5168 19.8881 23.3284 19.7796 23.1222 19.7127C22.9159 19.6457 22.6967 19.6218 22.4798 19.6428L22.5552 19.6143ZM17.5465 22.6714C16.9782 22.6677 16.4251 22.4981 15.9624 22.1857V32.5714C15.9624 32.9693 16.1293 33.3508 16.4263 33.6321C16.7235 33.9134 17.1264 34.0714 17.5465 34.0714C17.9667 34.0714 18.3695 33.9134 18.6667 33.6321C18.9637 33.3508 19.1306 32.9693 19.1306 32.5714V22.2C18.652 22.5376 18.0677 22.7136 17.4711 22.7L17.5465 22.6714ZM4.04413 30.6286V1.61428C4.04016 1.26061 3.889 0.92272 3.62348 0.673963C3.35795 0.425206 2.99952 0.285691 2.62601 0.285706H2.2941C1.92059 0.285691 1.56215 0.425206 1.29663 0.673963C1.03111 0.92272 0.879944 1.26061 0.875977 1.61428V30.6286C0.875977 30.9847 1.02539 31.3263 1.29134 31.5781C1.55728 31.83 1.918 31.9714 2.2941 31.9714H2.62601C3.00213 31.9714 3.36283 31.83 3.62877 31.5781C3.89473 31.3263 4.04413 30.9847 4.04413 30.6286ZM7.63471 28.5143H7.30281C6.9267 28.5143 6.56598 28.3728 6.30004 28.121C6.0341 27.8691 5.88468 27.5276 5.88468 27.1714V5.07142C5.88866 4.71776 6.03981 4.37985 6.30534 4.13111C6.57086 3.88235 6.9293 3.74283 7.30281 3.74285H7.63471C8.00822 3.74283 8.36666 3.88235 8.63218 4.13111C8.8977 4.37985 9.04887 4.71776 9.05284 5.07142V27.2C9.05284 27.5561 8.90342 27.8977 8.63748 28.1496C8.37153 28.4014 8.01081 28.5429 7.63471 28.5429V28.5143ZM12.6283 25.1143H12.2813C11.9093 25.1143 11.5524 24.9743 11.2893 24.7251C11.0261 24.476 10.8783 24.1381 10.8783 23.7857V8.49999C10.8763 8.32432 10.9112 8.15002 10.9807 7.98718C11.0503 7.82433 11.1533 7.67619 11.2838 7.55131C11.4143 7.42642 11.5697 7.32728 11.7409 7.25962C11.9122 7.19196 12.0958 7.15712 12.2813 7.15713H12.6283C13.0019 7.16091 13.3587 7.30403 13.6213 7.55546C13.8841 7.80689 14.0314 8.14631 14.0314 8.49999V23.7857C14.0314 24.1381 13.8835 24.476 13.6204 24.7251C13.3573 24.9743 13.0005 25.1143 12.6283 25.1143ZM17.3051 21.6143C16.9316 21.6143 16.5731 21.4748 16.3076 21.226C16.0421 20.9773 15.8909 20.6394 15.887 20.2857V12.0571C15.8746 11.8737 15.9021 11.6898 15.9679 11.5168C16.0335 11.344 16.1361 11.1856 16.269 11.0517C16.4019 10.9177 16.5624 10.8111 16.7407 10.7383C16.9189 10.6656 17.111 10.6281 17.3051 10.6286H17.637C18.0131 10.6286 18.3739 10.77 18.6398 11.0218C18.9058 11.2737 19.0552 11.6153 19.0552 11.9714V20.2571C19.0571 20.4347 19.022 20.6108 18.9515 20.7754C18.8812 20.94 18.7771 21.0897 18.6451 21.216C18.5133 21.3421 18.3564 21.4423 18.1832 21.5107C18.0101 21.5791 17.8246 21.6143 17.637 21.6143H17.3051ZM22.2987 18.5428C21.9226 18.5428 21.5619 18.4014 21.2959 18.1496C21.03 17.8977 20.8806 17.5561 20.8806 17.2V15.0714C20.8845 14.7177 21.0357 14.3798 21.3012 14.1311C21.5667 13.8823 21.9252 13.7428 22.2987 13.7428H22.6306C23.0042 13.7428 23.3626 13.8823 23.6282 14.1311C23.8937 14.3798 24.0449 14.7177 24.0488 15.0714V17.2C24.0488 17.5537 23.9015 17.8931 23.6387 18.1446C23.3761 18.396 23.0193 18.5391 22.6457 18.5428H22.2987Z" fill="#B5B5B5"/>
</svg>
