<svg width="240" height="46" viewBox="0 0 240 46" fill="none" xmlns="http://www.w3.org/2000/svg">
<path d="M36.4597 20.285C35.7926 20.9205 35.2819 21.6875 34.9636 22.5312C34.6454 23.375 34.5276 24.2748 34.6186 25.1667L34.587 25.1367C34.6806 26.1865 34.531 27.2428 34.1489 28.2323C33.7668 29.2217 33.1613 30.1202 32.3747 30.8652C31.588 31.61 30.6391 32.1835 29.5941 32.5452C28.5493 32.907 27.4336 33.0487 26.3251 32.96L26.3568 32.99C25.0308 32.8732 23.6989 33.1463 22.5427 33.7725C21.3867 34.3987 20.4626 35.3472 19.8968 36.4888C19.3309 37.6305 19.1505 38.9095 19.3803 40.1518C19.6104 41.394 20.2393 42.5388 21.1814 43.4302C22.1236 44.3215 23.3331 44.916 24.6451 45.1325C25.9573 45.3492 27.3078 45.1772 28.5129 44.6403C29.718 44.1033 30.7188 43.2277 31.379 42.1323C32.0392 41.037 32.3267 39.7757 32.202 38.52L32.2355 38.55C32.1419 37.5003 32.2913 36.4438 32.6734 35.4543C33.0555 34.465 33.6612 33.5665 34.4477 32.8215C35.2345 32.0767 36.1834 31.5032 37.2282 31.1415C38.2731 30.7797 39.3887 30.638 40.4973 30.7267L40.4639 30.6967C41.5471 30.7888 42.6374 30.6207 43.6338 30.2077C44.63 29.7947 45.5002 29.1502 46.1634 28.334C46.8266 27.5178 47.2617 26.5562 47.4279 25.5385C47.5942 24.5207 47.4865 23.4797 47.1147 22.5117C46.743 21.5438 46.1192 20.6805 45.3013 20.0017C44.4834 19.3228 43.4978 18.8505 42.4357 18.6285C41.3737 18.4065 40.2696 18.4418 39.2259 18.7313C38.1821 19.021 37.2326 19.5553 36.465 20.285H36.4597Z" fill="#B5B5B5"/>
<path d="M23.4749 29.06L23.4414 29.03C24.3836 29.1198 25.3351 29.0103 26.2273 28.7093C27.1193 28.4083 27.9297 27.9235 28.5996 27.2896C29.2693 26.6558 29.7822 25.8888 30.1006 25.0443C30.4191 24.1998 30.5355 23.299 30.4413 22.4066L30.4747 22.4366C30.3811 21.3868 30.5307 20.3305 30.9127 19.341C31.2948 18.3516 31.9004 17.4531 32.687 16.7081C33.4738 15.9633 34.4226 15.3898 35.4674 15.0281C36.5124 14.6662 37.6279 14.5247 38.7366 14.6133L38.7032 14.5833C40.0294 14.7013 41.3616 14.4289 42.5183 13.8035C43.6752 13.178 44.6 12.2299 45.1667 11.0885C45.7335 9.94703 45.9146 8.66782 45.6854 7.4253C45.4562 6.18279 44.8279 5.03749 43.8859 4.14559C42.9441 3.2537 41.7345 2.65864 40.4224 2.4416C39.1103 2.22455 37.7594 2.39607 36.5539 2.93277C35.3484 3.46945 34.3473 4.3452 33.6867 5.44055C33.0262 6.53589 32.7386 7.7975 32.8632 9.0533L32.8315 9.02164C32.9253 10.0715 32.7761 11.128 32.3941 12.1176C32.0122 13.1071 31.4065 14.0057 30.62 14.7508C29.8332 15.4956 28.8842 16.0691 27.8392 16.4308C26.7941 16.7925 25.6783 16.9338 24.5697 16.845L24.6013 16.8766C23.6592 16.7868 22.7075 16.8963 21.8155 17.1973C20.9235 17.4981 20.1131 17.9831 19.4432 18.617C18.7733 19.2508 18.2606 20.0178 17.9421 20.8623C17.6237 21.7068 17.5073 22.6076 17.6015 23.5L17.5698 23.47C17.6631 24.5196 17.5133 25.576 17.1312 26.5653C16.7489 27.5545 16.1434 28.453 15.3568 29.1978C14.5702 29.9426 13.6214 30.516 12.5767 30.878C11.532 31.2398 10.4165 31.3816 9.30794 31.2933L9.33963 31.3233C8.01344 31.2053 6.6811 31.4776 5.52436 32.1031C4.36763 32.7286 3.44279 33.6766 2.87602 34.8181C2.30924 35.9596 2.12809 37.2388 2.35731 38.4813C2.58653 39.7238 3.21495 40.8691 4.15682 41.761C5.09871 42.653 6.30821 43.248 7.62037 43.465C8.93254 43.682 10.2835 43.5105 11.4889 42.9738C12.6943 42.4371 13.6956 41.5615 14.356 40.4661C15.0166 39.3706 15.3042 38.1091 15.1796 36.8533L15.213 36.8833C15.1194 35.8335 15.269 34.7771 15.6511 33.7876C16.0331 32.7983 16.6387 31.8998 17.4253 31.1548C18.212 30.41 19.1609 29.8365 20.2057 29.4748C21.2507 29.113 22.3662 28.9713 23.4749 29.06Z" fill="#B5B5B5"/>
<path d="M11.6791 25.715C12.3462 25.0797 12.857 24.3127 13.1749 23.4688C13.4929 22.625 13.6101 21.725 13.5184 20.8333L13.5518 20.8633C13.4582 19.8133 13.6077 18.7565 13.99 17.7668C14.3724 16.7772 14.9782 15.8785 15.7653 15.1335C16.5524 14.3885 17.5017 13.8152 18.547 13.4536C19.5923 13.092 20.7084 12.9509 21.8172 13.04L21.7838 13.01C23.1095 13.1276 24.4413 12.8551 25.5975 12.2297C26.7537 11.6043 27.678 10.6565 28.2445 9.51538C28.8109 8.37428 28.9919 7.09553 28.7627 5.85348C28.5335 4.61143 27.9052 3.46656 26.9637 2.575C26.0222 1.68343 24.8131 1.08856 23.5014 0.871529C22.1898 0.654479 20.8393 0.825845 19.6344 1.36221C18.4292 1.89858 17.4283 2.77386 16.7679 3.8687C16.1073 4.96353 15.8195 6.22463 15.9438 7.48L15.9121 7.45C16.0058 8.49975 15.8562 9.5562 15.474 10.5456C15.0919 11.535 14.4865 12.4335 13.6998 13.1784C12.9131 13.9234 11.9642 14.4968 10.9194 14.8585C9.87452 15.2203 8.75887 15.362 7.65028 15.2733L7.68196 15.3033C6.59875 15.2113 5.50854 15.3798 4.51236 15.793C3.51619 16.2062 2.64627 16.8508 1.98323 17.6672C1.32018 18.4833 0.885477 19.445 0.71936 20.4627C0.55326 21.4805 0.661136 22.5215 1.03299 23.4892C1.40484 24.457 2.02867 25.3202 2.84664 25.9988C3.6646 26.6777 4.65025 27.1498 5.71225 27.3718C6.77423 27.5937 7.87821 27.5582 8.92189 27.2687C9.96555 26.979 10.9151 26.4447 11.6826 25.715H11.6791Z" fill="#B5B5B5"/>
<path d="M66.2013 9.09166H71.4288V33.18H66.2013V9.09166Z" fill="#B5B5B5"/>
<path d="M74.3889 24.9317C74.3817 23.2007 74.9171 21.5063 75.9274 20.0637C76.9377 18.621 78.3774 17.4947 80.0643 16.8275C81.7512 16.1602 83.6091 15.982 85.403 16.3155C87.1969 16.649 88.8459 17.479 90.1412 18.7007C91.4364 19.9222 92.3196 21.4803 92.679 23.1777C93.0384 24.875 92.8577 26.6352 92.1598 28.2352C91.4619 29.835 90.2783 31.203 88.7588 32.1653C87.2391 33.1278 85.4523 33.6417 83.6241 33.6417C82.4107 33.6548 81.2066 33.4386 80.0823 33.006C78.9579 32.5733 77.936 31.9328 77.0762 31.122C76.2162 30.311 75.5358 29.3458 75.0745 28.283C74.613 27.2202 74.3799 26.0808 74.3889 24.9317ZM87.6318 24.9317C87.61 24.1855 87.3564 23.462 86.9028 22.8515C86.449 22.2412 85.8154 21.7708 85.0811 21.4997C84.3466 21.2283 83.5442 21.168 82.7738 21.3263C82.0034 21.4847 81.2994 21.8543 80.7497 22.3895C80.2002 22.9245 79.8292 23.6012 79.6836 24.3348C79.5379 25.0683 79.6236 25.8263 79.9304 26.514C80.2372 27.2017 80.7511 27.7883 81.408 28.2008C82.065 28.6133 82.8359 28.8333 83.6241 28.8333C84.1639 28.847 84.7009 28.7545 85.2013 28.5618C85.7015 28.3692 86.1542 28.0805 86.5307 27.714C86.9072 27.3473 87.1995 26.9108 87.3889 26.432C87.5785 25.9532 87.6612 25.4423 87.6318 24.9317Z" fill="#B5B5B5"/>
<path d="M113.694 16.6817V32.3483C113.694 37.8917 109.128 40.235 104.494 40.235C102.863 40.3507 101.229 40.0385 99.7718 39.333C98.3151 38.6273 97.0917 37.5555 96.2358 36.235L100.696 33.7933C101.056 34.4817 101.629 35.0495 102.339 35.421C103.049 35.7923 103.862 35.9497 104.668 35.8717C105.184 35.9393 105.709 35.8963 106.205 35.7458C106.701 35.5953 107.154 35.3412 107.533 35.0023C107.911 34.6633 108.203 34.2483 108.389 33.7877C108.575 33.3272 108.649 32.833 108.606 32.3417V30.8333C107.993 31.5425 107.214 32.106 106.331 32.4785C105.447 32.851 104.484 33.0222 103.517 32.9783C101.218 32.9097 99.0377 31.9967 97.437 30.4323C95.8364 28.8682 94.9414 26.7755 94.9414 24.5975C94.9414 22.4195 95.8364 20.3268 97.437 18.7627C99.0377 17.1983 101.218 16.2853 103.517 16.2167C104.484 16.1728 105.447 16.344 106.331 16.7165C107.214 17.089 107.993 17.6525 108.606 18.3617V16.6783L113.694 16.6817ZM108.607 24.6C108.643 23.8023 108.425 23.0128 107.982 22.3333C107.539 21.6537 106.892 21.1152 106.123 20.787C105.355 20.4587 104.5 20.3558 103.669 20.4915C102.838 20.6272 102.069 20.9952 101.461 21.5483C100.853 22.1013 100.433 22.814 100.257 23.5947C100.08 24.3753 100.154 25.1883 100.469 25.9288C100.784 26.6693 101.326 27.3037 102.026 27.75C102.725 28.1963 103.549 28.4343 104.392 28.4333C104.941 28.4697 105.492 28.3967 106.01 28.219C106.528 28.0413 107 27.7628 107.397 27.4018C107.794 27.0407 108.107 26.6048 108.316 26.1222C108.524 25.6397 108.624 25.1212 108.607 24.6Z" fill="#B5B5B5"/>
<path d="M116.655 24.9317C116.647 23.2007 117.183 21.5063 118.193 20.0637C119.203 18.621 120.643 17.4947 122.33 16.8275C124.017 16.1602 125.875 15.982 127.669 16.3155C129.463 16.649 131.112 17.479 132.407 18.7007C133.702 19.9222 134.585 21.4803 134.945 23.1777C135.304 24.875 135.123 26.6352 134.425 28.2352C133.728 29.835 132.544 31.203 131.024 32.1653C129.505 33.1278 127.718 33.6417 125.89 33.6417C124.676 33.6548 123.472 33.4386 122.348 33.006C121.224 32.5733 120.202 31.9328 119.342 31.122C118.482 30.311 117.801 29.3458 117.34 28.283C116.879 27.2202 116.646 26.0808 116.655 24.9317ZM129.897 24.9317C129.876 24.1855 129.622 23.462 129.168 22.8515C128.715 22.2412 128.081 21.7708 127.347 21.4997C126.612 21.2283 125.81 21.168 125.039 21.3263C124.269 21.4847 123.565 21.8543 123.015 22.3895C122.466 22.9245 122.095 23.6012 121.949 24.3348C121.803 25.0683 121.889 25.8263 122.196 26.514C122.503 27.2017 123.017 27.7883 123.674 28.2008C124.331 28.6133 125.101 28.8333 125.89 28.8333C126.43 28.847 126.967 28.7545 127.467 28.5618C127.967 28.3692 128.42 28.0805 128.796 27.714C129.173 27.3473 129.465 26.9108 129.655 26.432C129.844 25.9532 129.927 25.4423 129.897 24.9317Z" fill="#B5B5B5"/>
<path d="M137.562 12.26C137.562 11.6726 137.746 11.0984 138.091 10.61C138.435 10.1215 138.925 9.74086 139.499 9.51608C140.072 9.29128 140.702 9.23246 141.311 9.34706C141.919 9.46166 142.478 9.74453 142.917 10.1599C143.355 10.5752 143.654 11.1044 143.775 11.6806C143.896 12.2567 143.834 12.8539 143.597 13.3966C143.359 13.9393 142.957 14.4031 142.441 14.7295C141.926 15.0558 141.319 15.23 140.699 15.23C139.87 15.2222 139.076 14.9068 138.49 14.3515C137.904 13.7962 137.571 13.0453 137.562 12.26ZM138.09 16.6817H143.32V33.1817H138.083L138.09 16.6817Z" fill="#B5B5B5"/>
<path d="M165.891 24.9317C165.952 26.0222 165.784 27.1132 165.397 28.142C165.011 29.1708 164.414 30.1172 163.64 30.9267C162.866 31.736 161.93 32.3927 160.887 32.8587C159.844 33.3245 158.714 33.5907 157.562 33.6417C156.594 33.6917 155.626 33.537 154.728 33.1888C153.83 32.8405 153.025 32.3075 152.372 31.6283V39.78H147.145V16.6817H152.372V18.2317C153.026 17.553 153.83 17.0203 154.728 16.6725C155.626 16.3245 156.594 16.17 157.562 16.22C158.715 16.2708 159.845 16.5368 160.888 17.0028C161.931 17.4688 162.867 18.1255 163.641 18.9352C164.415 19.7448 165.012 20.6915 165.398 21.7207C165.785 22.7497 165.952 23.841 165.891 24.9317ZM160.664 24.9317C160.643 24.1595 160.383 23.4102 159.915 22.7773C159.447 22.1447 158.792 21.6567 158.033 21.3747C157.273 21.0925 156.443 21.0287 155.646 21.1913C154.848 21.3538 154.119 21.7355 153.549 22.2885C152.98 22.8417 152.595 23.5413 152.444 24.3005C152.292 25.0595 152.38 25.8438 152.697 26.5557C153.014 27.2675 153.546 27.8748 154.226 28.302C154.905 28.729 155.703 28.9568 156.519 28.9567C157.079 28.9803 157.638 28.8915 158.159 28.6962C158.68 28.501 159.152 28.2035 159.543 27.8235C159.935 27.4433 160.237 26.9893 160.43 26.491C160.623 25.9927 160.703 25.4612 160.664 24.9317Z" fill="#B5B5B5"/>
<path d="M182.022 28.23C182.022 32.025 178.539 33.6417 174.776 33.6417C173.255 33.772 171.729 33.4677 170.393 32.7675C169.057 32.0675 167.974 31.0042 167.283 29.715L171.812 27.2733C171.995 27.8692 172.389 28.3877 172.927 28.7418C173.465 29.0962 174.116 29.265 174.769 29.22C176.022 29.22 176.65 28.8567 176.65 28.1983C176.65 26.3817 168.077 27.34 168.077 21.6317C168.077 18.0333 171.284 16.22 174.908 16.22C176.27 16.1792 177.618 16.4852 178.813 17.106C180.009 17.727 181.006 18.64 181.702 19.75L177.242 22.0267C177.046 21.5945 176.721 21.2263 176.305 20.9682C175.89 20.71 175.404 20.5733 174.908 20.575C174.001 20.575 173.443 20.9083 173.443 21.4983C173.45 23.38 182.022 22.125 182.022 28.23Z" fill="#B5B5B5"/>
<path d="M201.117 16.6817V33.1817H195.89V31.63C195.286 32.3147 194.52 32.8542 193.654 33.2042C192.789 33.5542 191.849 33.7047 190.909 33.6433C187.389 33.6433 184.396 31.2683 184.396 26.81V16.6817H189.624V26.085C189.58 26.478 189.627 26.8753 189.763 27.2492C189.897 27.6232 190.117 27.9648 190.405 28.2503C190.694 28.5358 191.044 28.7583 191.433 28.9025C191.82 29.0467 192.238 29.109 192.655 29.085C194.571 29.085 195.895 28.03 195.895 25.6867V16.6867L201.117 16.6817Z" fill="#B5B5B5"/>
<path d="M231.092 23.05V33.18H225.864V23.4783C225.864 21.8283 225.028 20.7733 223.356 20.7733C221.613 20.7733 220.637 21.9283 220.637 23.875V33.18H215.411V23.4783C215.411 21.8283 214.575 20.7733 212.901 20.7733C211.159 20.7733 210.183 21.9283 210.183 23.875V33.18H204.956V16.68H210.183V18.1967C210.726 17.5238 211.437 16.9902 212.252 16.6447C213.068 16.299 213.962 16.1525 214.853 16.2183C215.747 16.1768 216.638 16.3557 217.439 16.7372C218.238 17.1185 218.919 17.6898 219.417 18.395C219.996 17.6572 220.763 17.0705 221.647 16.6898C222.53 16.3092 223.502 16.147 224.47 16.2183C228.471 16.22 231.092 18.925 231.092 23.05Z" fill="#B5B5B5"/>
<path d="M235.513 16.58C237.655 16.58 239.392 14.9353 239.392 12.9067C239.392 10.8779 237.655 9.23333 235.513 9.23333C233.371 9.23333 231.634 10.8779 231.634 12.9067C231.634 14.9353 233.371 16.58 235.513 16.58Z" fill="#B5B5B5"/>
</svg>
