<svg width="181" height="46" viewBox="0 0 181 46" fill="none" xmlns="http://www.w3.org/2000/svg">
<path d="M59.9208 29.8182V10.3727H56.5534V29.8182H59.9208Z" fill="#B5B5B5"/>
<path d="M61.9817 23.3364C61.9817 27.3091 64.7971 30.1318 69.0753 30.1318C73.3535 30.1318 76.1688 27.3091 76.1688 23.3364C76.1688 19.3636 73.3535 16.5409 69.0753 16.5409C64.7971 16.5409 61.9817 19.3636 61.9817 23.3364ZM65.3767 23.3364C65.3767 21.0102 66.8396 19.3898 69.0753 19.3898C71.311 19.3898 72.7739 21.0102 72.7739 23.3364C72.7739 25.6364 71.311 27.283 69.0753 27.283C66.8396 27.283 65.3767 25.6364 65.3767 23.3364Z" fill="#B5B5B5"/>
<path d="M77.3015 23.075C77.3015 26.8386 79.8684 29.5568 83.705 29.5568C85.6923 29.5568 87.4035 28.7989 88.2592 27.5443V29.7398C88.2592 31.8568 86.8515 33.2682 84.5054 33.2682C82.4077 33.2682 80.9724 32.3011 80.7792 30.6023H77.3843C77.8259 33.9739 80.5584 36.1693 84.3122 36.1693C88.7284 36.1693 91.5437 33.425 91.5437 29.1648V16.9068H88.5628L88.3696 18.658C87.5416 17.2989 85.8303 16.4886 83.8154 16.4886C79.9236 16.4886 77.3015 19.2852 77.3015 23.075ZM80.724 22.9966C80.724 20.8534 82.1593 19.2852 84.2846 19.2852C86.6031 19.2852 88.1488 20.8795 88.1488 22.9966C88.1488 25.1398 86.6031 26.7864 84.2846 26.7864C82.1869 26.7864 80.724 25.1659 80.724 22.9966Z" fill="#B5B5B5"/>
<path d="M93.2104 23.3363C93.2104 27.3091 96.0258 30.1318 100.304 30.1318C104.582 30.1318 107.398 27.3091 107.398 23.3363C107.398 19.3636 104.582 16.5409 100.304 16.5409C96.0258 16.5409 93.2104 19.3636 93.2104 23.3363ZM96.6054 23.3363C96.6054 21.0102 98.0683 19.3898 100.304 19.3898C102.54 19.3898 104.003 21.0102 104.003 23.3363C104.003 25.6363 102.54 27.2829 100.304 27.2829C98.0683 27.2829 96.6054 25.6363 96.6054 23.3363Z" fill="#B5B5B5"/>
<path d="M111.041 14.267C112.146 14.267 113.056 13.4307 113.056 12.3591C113.056 11.3136 112.146 10.4773 111.041 10.4773C109.91 10.4773 109.054 11.3136 109.054 12.3591C109.054 13.4307 109.91 14.267 111.041 14.267ZM109.358 29.8182H112.725V16.9068H109.358V29.8182Z" fill="#B5B5B5"/>
<path d="M115.675 35.8034H118.96V28.0409C119.816 29.3739 121.665 30.158 123.708 30.158C127.737 30.158 130.139 27.2307 130.083 23.2057C130.001 19.1545 127.544 16.5148 123.68 16.5148C121.61 16.5148 119.733 17.3773 118.905 18.867L118.712 16.9068H115.675V35.8034ZM119.098 23.3625C119.098 21.0364 120.589 19.4159 122.935 19.4159C125.281 19.4159 126.688 21.0625 126.688 23.3625C126.688 25.6625 125.281 27.283 122.935 27.283C120.589 27.283 119.098 25.6886 119.098 23.3625Z" fill="#B5B5B5"/>
<path d="M130.938 25.95C131.048 28.5114 133.146 30.158 136.403 30.158C139.605 30.158 141.785 28.5375 141.785 26.0284C141.785 24.1727 140.571 22.9182 138.335 22.3955L135.934 21.8466C134.912 21.5852 134.222 21.2455 134.222 20.4091C134.222 19.5205 134.968 18.8932 136.182 18.8932C137.452 18.8932 138.28 19.5727 138.28 20.6966H141.344C141.233 18.1352 139.218 16.5148 136.265 16.5148C133.339 16.5148 131.159 18.1352 131.159 20.592C131.159 22.2648 132.18 23.65 134.802 24.3034L137.176 24.8784C138.059 25.1136 138.611 25.5057 138.611 26.2375C138.611 27.2568 137.59 27.7273 136.348 27.7273C134.857 27.7273 134.002 27.0739 134.002 25.95H130.938Z" fill="#B5B5B5"/>
<path d="M148.771 30.158C150.62 30.158 152.387 29.3477 153.187 28.1455L153.408 29.8182H156.554V16.9068H153.187V23.6761C153.187 26.0023 152.249 27.3091 150.04 27.3091C148.329 27.3091 147.142 26.525 147.142 23.8591V16.9068H143.775V24.983C143.775 28.067 145.541 30.158 148.771 30.158Z" fill="#B5B5B5"/>
<path d="M162.893 29.8182V22.3955C162.893 20.3045 164.19 19.3114 165.791 19.3114C167.392 19.3114 168.441 20.2784 168.441 22.108V29.8182H171.725V22.4216C171.725 20.3045 172.995 19.3114 174.596 19.3114C176.224 19.3114 177.273 20.2784 177.273 22.108V29.8182H180.53V21.3761C180.53 18.3966 178.791 16.5148 175.479 16.5148C173.409 16.5148 171.781 17.4557 171.118 18.9716C170.373 17.4557 168.883 16.5148 166.619 16.5148C165.018 16.5148 163.583 17.2205 162.783 18.3705L162.617 16.9068H159.526V29.8182H162.893Z" fill="#B5B5B5"/>
<path d="M154.82 41.3568C155.322 41.3568 155.757 40.9568 155.757 40.4818C155.757 39.9943 155.322 39.5943 154.82 39.5943C154.305 39.5943 153.87 39.9943 153.87 40.4818C153.87 40.9568 154.305 41.3568 154.82 41.3568Z" fill="#B5B5B5"/>
<path d="M156.726 38.1318C156.726 40.0443 157.967 41.3318 159.775 41.3318C161.333 41.3318 162.521 40.4443 162.772 39.1193H161.584C161.359 39.8568 160.673 40.2943 159.854 40.2943C158.693 40.2943 157.954 39.4443 157.954 38.1193C157.954 36.7693 158.732 35.9443 159.881 35.9443C160.673 35.9443 161.359 36.3443 161.571 37.1318H162.759C162.547 35.7943 161.439 34.8943 159.894 34.8943C158.02 34.8943 156.726 36.2068 156.726 38.1318Z" fill="#B5B5B5"/>
<path d="M163.24 38.1193C163.24 39.9568 164.56 41.3318 166.54 41.3318C168.52 41.3318 169.84 39.9568 169.84 38.1193C169.84 36.2818 168.52 34.9068 166.54 34.9068C164.56 34.9068 163.24 36.2818 163.24 38.1193ZM164.494 38.1193C164.494 36.8693 165.299 35.9568 166.54 35.9568C167.781 35.9568 168.586 36.8693 168.586 38.1193C168.586 39.3693 167.781 40.2818 166.54 40.2818C165.299 40.2818 164.494 39.3693 164.494 38.1193Z" fill="#B5B5B5"/>
<path d="M172.141 41.1943V37.5193C172.141 36.5568 172.774 35.9318 173.698 35.9318C174.583 35.9318 175.137 36.4693 175.137 37.4318V41.1943H176.352V37.5318C176.352 36.5568 176.972 35.9318 177.909 35.9318C178.781 35.9318 179.335 36.4693 179.335 37.4318V41.1943H180.536V37.1818C180.536 35.7693 179.665 34.9068 178.187 34.9068C177.183 34.9068 176.404 35.3693 176.088 36.1193C175.758 35.3693 175.032 34.9068 173.976 34.9068C173.17 34.9068 172.457 35.2568 172.101 35.8568L172.009 35.0818H170.9V41.1943H172.141Z" fill="#B5B5B5"/>
<path fill-rule="evenodd" clip-rule="evenodd" d="M0.591309 23.4946L0.593625 23.2669L0.598401 23.0391L0.605649 22.8112L0.615358 22.5834L0.62755 22.3555L0.642203 22.1277L0.65934 21.9L0.678937 21.6723L0.701018 21.4446L0.725571 21.217L0.752596 20.9898L0.782082 20.7625L0.814052 20.5354L0.848493 20.3086L0.885395 20.082L0.924769 19.8558L0.966615 19.6296L1.01091 19.404L1.05768 19.1785L1.1069 18.9534L1.15859 18.7286L1.21271 18.5043L1.26931 18.2804L1.32832 18.0569L1.3898 17.834L1.45371 17.6113L1.52006 17.3893L1.58883 17.1678L1.66003 16.9469L1.73364 16.7266L1.80968 16.5068L1.88813 16.2876L1.96898 16.0691L2.05221 15.8512L2.13785 15.6341L2.22586 15.4176L2.31626 15.2019L2.40903 14.9869L2.50415 14.7728L2.60164 14.5594L2.70147 14.3468L2.80364 14.1351L2.90814 13.9243L3.01497 13.7143L3.12412 13.5052L3.23557 13.2971L3.34931 13.09L3.46534 12.8837L3.58364 12.6786L3.70421 12.4744L3.82705 12.2712L3.95212 12.0692L4.07944 11.8682L4.20897 11.6683L4.34073 11.4695L4.47468 11.2719L4.61082 11.0755L4.74915 10.8802L4.88964 10.6862L5.0323 10.4934L5.17708 10.3018L5.32399 10.1116L5.47303 9.92248L5.62416 9.73486L5.7774 9.5485L5.9327 9.36343L6.09006 9.1798L6.24948 8.99755L6.41092 8.8167L6.5744 8.63729L6.73987 8.45932L6.90733 8.28283L7.07676 8.10782L7.24817 7.93432L7.4215 7.76234L7.59677 7.59191L7.77395 7.42303L7.95302 7.25574L8.13398 7.09005L8.3168 6.92597L8.50146 6.76353L8.68795 6.60274L8.87625 6.44363L9.06635 6.28619L9.25823 6.13046L9.45186 5.97646L9.64723 5.82419L9.84433 5.67368L10.0431 5.52494L10.2436 5.37799L10.4457 5.23285L10.6496 5.08952L10.8551 4.94805L11.0621 4.80842L11.2706 4.67066L11.4809 4.53478L11.6926 4.4008L11.9058 4.26874L12.1206 4.1386L12.337 4.01042L12.5547 3.88419L12.7739 3.75993L12.9945 3.63767L13.2165 3.51741L13.44 3.39916L13.6648 3.28294L13.8908 3.16876L14.1183 3.05665L14.347 2.94659L14.577 2.83863L14.8083 2.73275L15.0409 2.62898L15.2745 2.52733L15.5095 2.42782L15.7455 2.33044L15.9828 2.23523L16.2211 2.14218L16.4605 2.05131L16.701 1.96261L16.9426 1.87614L17.1851 1.79185L17.4287 1.70981L17.6733 1.62998L17.9188 1.55239L18.1652 1.47706L18.4125 1.40398L18.6608 1.33317L18.91 1.26465L19.1598 1.19841L19.4106 1.13445L19.6622 1.07281L19.9144 1.01348L20.1674 0.956478L20.4212 0.901785L20.6756 0.849444L20.9306 0.799432L21.1864 0.751773L21.4427 0.706478L21.6996 0.663535L21.9572 0.622966L22.2152 0.584773L22.4737 0.548955L22.7326 0.515535L22.9921 0.4845L23.252 0.455864L23.5123 0.429614L23.773 0.405796L24.034 0.384375L24.2954 0.365364L24.557 0.348785L25.9639 0.272705L26.0442 6.69165L26.0902 6.69115L26.2845 6.69089L26.4787 6.69243L26.673 6.69578L26.8676 6.70095L27.062 6.70793L27.2565 6.71671L27.451 6.72731L27.6456 6.73973L27.84 6.75394L28.0345 6.76999L28.2288 6.78785L28.4231 6.80753L28.6171 6.82902L28.8112 6.85233L29.005 6.87746L29.1987 6.90439L29.3921 6.93315L29.5855 6.96372L29.7784 6.99609L29.9713 7.03028L30.1638 7.06628L30.3559 7.1041L30.5479 7.14372L30.7394 7.18514L30.9306 7.22835L31.1215 7.27338L31.312 7.32021L31.502 7.36882L31.6916 7.41923L31.8808 7.47142L32.0695 7.5254L32.2576 7.58116L32.4453 7.63871L32.6325 7.69802L32.8191 7.7591L33.0051 7.82196L33.1907 7.88656L33.3755 7.95293L33.5597 8.02105L33.7433 8.09092L33.9262 8.16254L34.1084 8.23588L34.2899 8.31096L34.4708 8.38776L34.6508 8.46628L34.8301 8.54651L35.0086 8.62846L35.1864 8.7121L35.3633 8.79744L35.5393 8.88447L35.7145 8.97317L35.8889 9.06356L36.0623 9.1556L36.2349 9.24931L36.4065 9.34466L36.5771 9.44168L36.7468 9.54032L36.9155 9.64055L37.0832 9.74248L37.2499 9.84589L37.4155 9.951L37.5801 10.0577L37.7436 10.1659L37.9061 10.2758L38.0674 10.3871L38.2274 10.5001L38.3866 10.6146L38.5444 10.7307L38.7011 10.8483L38.8565 10.9672L39.0108 11.0878L39.1638 11.21L39.3157 11.3335L39.4663 11.4585L39.6156 11.585L39.7634 11.7129L39.91 11.8424L40.0554 11.9732L40.1994 12.1053L40.3419 12.239L40.4832 12.374L40.623 12.5104L40.7615 12.6482L40.8984 12.7873L41.034 12.9277L41.1681 13.0695L41.3007 13.2126L41.4318 13.357L41.5614 13.5027L41.6896 13.6496L41.8162 13.7979L41.9413 13.9474L42.0648 14.098L42.1867 14.25L42.307 14.4032L42.4257 14.5575L42.5429 14.713L42.6583 14.8698L42.7722 15.0275L42.8844 15.1865L42.9949 15.3466L43.1038 15.5078L43.2108 15.6701L43.3163 15.8334L43.42 15.9978L43.522 16.1633L43.6222 16.3298L43.7207 16.4972L43.8174 16.6658L43.9124 16.8352L44.0055 17.0057L44.0968 17.177L44.1863 17.3493L44.2741 17.5226L44.36 17.6967L44.444 17.8717L44.5262 18.0476L44.6065 18.2243L44.6848 18.4019L44.7614 18.5802L44.836 18.7594L44.9088 18.9393L44.9796 19.1201L45.0485 19.3015L45.1154 19.4837L45.1805 19.6666L45.2436 19.8502L45.3047 20.0344L45.3638 20.2193L45.421 20.4049L45.4762 20.591L45.5293 20.7778L45.5806 20.9652L45.6296 21.153L45.6769 21.3416L45.722 21.5305L45.7651 21.7201L45.8063 21.91L45.8453 22.1005L45.8823 22.2915L45.9173 22.4828L45.9502 22.6745L45.981 22.8667L46.0098 23.0593L46.0365 23.2521L46.0611 23.4454L46.0836 23.639L46.104 23.8328L46.1224 24.0269L46.1387 24.2213L46.1529 24.416L46.1649 24.6109L46.1748 24.8059L46.1828 25.0012L46.1884 25.1966L46.1921 25.3921L46.1936 25.5878L46.193 25.7836L46.1902 25.9795L46.1853 26.1755L46.1783 26.3715L46.1692 26.5675L46.158 26.7635L46.1446 26.9595L46.1291 27.1555L46.1115 27.3515L46.0917 27.5474L46.0698 27.7432L46.0457 27.9387L46.0195 28.1343L45.9913 28.3296L45.9609 28.5249L45.9283 28.7199L45.8937 28.9146L45.8568 29.1092L45.8179 29.3035L45.7769 29.4976L45.7337 29.6913L45.6883 29.8848L45.6409 30.0779L45.5915 30.2707L45.5398 30.463L45.486 30.655L45.4302 30.8466L45.3722 31.0377L45.3122 31.2284L45.2501 31.4187L45.1857 31.6084L45.1195 31.7977L45.0511 31.9863L44.9805 32.1745L44.908 32.3621L44.8334 32.5491L44.7567 32.7354L44.678 32.9212L44.5972 33.1063L44.5144 33.2908L44.4296 33.4746L44.3427 33.6576L44.2538 33.84L44.1628 34.0216L44.0699 34.2024L43.9749 34.3825L43.878 34.5617L43.779 34.7402L43.6782 34.9177L43.5753 35.0945L43.4705 35.2703L43.3637 35.4453L43.255 35.6194L43.1443 35.7925L43.0318 35.9648L42.9171 36.1359L42.8007 36.3061L42.6825 36.4753L42.5623 36.6435L42.4402 36.8107L42.3163 36.9768L42.1905 37.1418L42.0628 37.3058L41.9333 37.4686L41.8021 37.6303L41.669 37.7908L41.5341 37.9502L41.3974 38.1084L41.2589 38.2653L41.1186 38.4211L40.9767 38.5757L40.8329 38.729L40.6874 38.881L40.5403 39.0318L40.3915 39.1812L40.2409 39.3294L40.0887 39.4761L39.9348 39.6216L39.7792 39.7657L39.6222 39.9084L39.4634 40.0498L39.3031 40.1896L39.141 40.3282L38.9775 40.4651L38.8125 40.6007L38.6458 40.7349L38.4777 40.8675L38.308 40.9985L38.1368 41.1282L37.9641 41.2562L37.79 41.3827L37.6145 41.5076L37.4374 41.631L37.2591 41.7528L37.0792 41.8729L36.898 41.9916L36.7155 42.1085L36.5316 42.2237L36.3463 42.3374L36.1599 42.4494L35.972 42.5596L35.7829 42.6683L35.5925 42.7751L35.4008 42.8803L35.2081 42.9837L35.0139 43.0853L34.8188 43.1853L34.6223 43.2834L34.4248 43.3797L34.2261 43.4744L34.0263 43.5671L33.8254 43.658L33.6234 43.7472L33.4204 43.8345L33.2164 43.92L33.0113 44.0035L32.8052 44.0852L32.5982 44.1651L32.3902 44.243L32.1813 44.3191L31.9714 44.3933L31.7607 44.4654L31.549 44.5358L31.3366 44.6041L31.1233 44.6705L30.9091 44.735L30.6942 44.7975L30.4785 44.858L30.2622 44.9166L30.045 44.9732L29.8271 45.0278L29.6085 45.0803L29.3894 45.1309L29.1695 45.1795L28.9489 45.226L28.7279 45.2705L28.5062 45.313L28.284 45.3535L28.0613 45.3919L27.838 45.4282L27.6142 45.4625L27.3901 45.4947L27.1653 45.5249L26.9403 45.5529L26.7148 45.579L26.4888 45.6028L26.2626 45.6246L26.036 45.6444L25.8092 45.662L25.5821 45.6776L25.3546 45.691L25.1269 45.7024L24.899 45.7116L24.671 45.7186L24.4426 45.7236L24.2142 45.7265L23.9856 45.7272L23.757 45.7259L23.5283 45.7224L23.2994 45.7168L23.0706 45.709L22.8417 45.6991L22.6129 45.6871L22.3841 45.6729L22.1553 45.6567L21.9267 45.6383L21.6981 45.6177L21.4696 45.5951L21.2413 45.5703L21.0132 45.5434L20.7852 45.5143L20.5575 45.483L20.33 45.4497L20.1028 45.4143L19.8759 45.3768L19.6492 45.337L19.423 45.2952L19.197 45.2513L18.9715 45.2052L18.7463 45.157L18.5216 45.1068L18.2973 45.0544L18.0735 44.9999L17.8502 44.9433L17.6275 44.8846L17.4052 44.8238L17.1834 44.761L16.9624 44.696L16.7419 44.629L16.5221 44.5599L16.3028 44.4886L16.0843 44.4153L15.8665 44.3401L15.6494 44.2627L15.433 44.1833L15.2175 44.1018L15.0027 44.0183L14.7887 43.9327L14.5756 43.8452L14.3633 43.7557L14.1519 43.6641L13.9414 43.5704L13.7318 43.4749L13.5233 43.3773L13.3155 43.2777L13.1089 43.1762L12.9033 43.0727L12.6986 42.9674L12.4951 42.86L12.2926 42.7507L12.0912 42.6394L11.8909 42.5262L11.6919 42.4112L11.4938 42.2942L11.297 42.1754L11.1015 42.0546L10.9071 41.9321L10.714 41.8076L10.5223 41.6813L10.3317 41.5533L10.1425 41.4233L9.95457 41.2916L9.768 41.1579L9.58282 41.0226L9.39902 40.8855L9.21663 40.7466L9.03567 40.606L8.85615 40.4636L8.6781 40.3195L8.50153 40.1737L8.32648 40.0261L8.15295 39.8769L7.98097 39.7261L7.81054 39.5735L7.6417 39.4194L7.47446 39.2635L7.30883 39.1061L7.14484 38.9471L6.98251 38.7865L6.82185 38.6243L6.66288 38.4605L6.50562 38.2952L6.35008 38.1284L6.19628 37.9601L6.04424 37.7902L5.89399 37.619L5.74553 37.4461L5.59887 37.2719L5.45404 37.0962L5.31106 36.9192L5.16993 36.7407L5.03067 36.5608L4.89332 36.3795L4.75785 36.1969L4.62432 36.013L4.49272 35.8278L4.36308 35.6412L4.23541 35.4535L4.1097 35.2644L3.986 35.0741L3.86431 34.8826L3.74464 34.6898L3.62703 34.4959L3.51145 34.3008L3.39793 34.1045L3.28651 33.907L3.17716 33.7085L3.06993 33.509L2.96481 33.3083L2.86183 33.1066L2.76099 32.9037L2.6623 32.7L2.56578 32.4951L2.47143 32.2894L2.37928 32.0826L2.28933 31.875L2.20158 31.6663L2.11607 31.4568L2.0328 31.2465L1.95176 31.0352L1.87297 30.8232L1.79644 30.6103L1.7222 30.3966L1.65024 30.1821L1.58057 29.9669L1.51321 29.751L1.44815 29.5343L1.38541 29.3169L1.325 29.099L1.26693 28.8803L1.2112 28.661L1.15783 28.4411L1.10682 28.2205L1.05817 27.9995L1.01189 27.7779L0.967995 27.5559L0.926485 27.3333L0.887375 27.1102L0.850653 26.8867L0.816344 26.6627L0.784446 26.4383L0.754973 26.2135L0.727911 25.9884L0.703274 25.7629L0.681073 25.5373L0.661308 25.3111L0.643979 25.0848L0.629099 24.8582L0.616666 24.6313L0.606681 24.4043L0.599145 24.1771L0.594069 23.9498L0.591465 23.7222L0.591309 23.4946ZM23.8462 6.8261L23.7915 2.45088L23.7395 2.45563L23.5009 2.47967L23.2629 2.5059L23.0251 2.53435L22.7882 2.56492L22.5515 2.59772L22.3151 2.6327L22.0794 2.66984L21.844 2.70919L21.6097 2.75059L21.3751 2.79431L21.1422 2.83999L20.9089 2.88798L20.6768 2.938L20.445 2.99025L20.2142 3.0445L19.984 3.10093L19.7545 3.15947L19.5256 3.22011L19.2978 3.2828L19.0704 3.34764L18.8442 3.41449L18.6186 3.48347L18.3942 3.55435L18.1701 3.62748L17.9473 3.70256L17.7255 3.77963L17.5043 3.8588L17.2844 3.9399L17.0656 4.02295L16.8474 4.10815L16.6303 4.19527L16.4143 4.28439L16.1995 4.37538L15.9858 4.46834L15.7733 4.56318L15.5614 4.66011L15.3512 4.75882L15.142 4.85944L14.9341 4.96197L14.7273 5.06639L14.522 5.17259L14.3175 5.28076L14.1143 5.39081L13.9129 5.50242L13.7122 5.61622L13.5133 5.73152L13.3158 5.84863L13.1192 5.96765L12.9242 6.08841L12.7306 6.21093L12.5389 6.3349L12.3478 6.46106L12.1587 6.58857L11.971 6.71784L11.7846 6.84889L11.5999 6.98149L11.4169 7.11568L11.235 7.25176L11.0551 7.38914L10.8765 7.52832L10.6996 7.66901L10.5243 7.81134L10.3508 7.95503L10.1786 8.10055L10.0083 8.24735L9.83948 8.39585L9.67262 8.5456L9.50729 8.69698L9.34379 8.84972L9.18197 9.00397L9.02171 9.15981L8.86356 9.31672L8.70718 9.47498L8.55219 9.63509L8.39935 9.79623L8.24838 9.9585L8.09896 10.1225L7.95172 10.2875L7.8061 10.454L7.66244 10.6216L7.52067 10.7905L7.38074 10.9607L7.24288 11.1319L7.10681 11.3044L6.97262 11.4783L6.84059 11.6529L6.71033 11.8291L6.58214 12.0061L6.45592 12.1843L6.33161 12.3636L6.2094 12.544L6.08919 12.7252L5.97099 12.9076L5.85491 13.0909L5.74074 13.2753L5.62862 13.4608L5.5187 13.6469L5.41076 13.8341L5.30488 14.0223L5.20114 14.2112L5.09945 14.4011L4.99994 14.5917L4.90251 14.7832L4.80722 14.9754L4.71402 15.1686L4.62301 15.3624L4.53408 15.557L4.44731 15.7524L4.36277 15.9483L4.28034 16.145L4.20007 16.3424L4.122 16.5403L4.0461 16.739L3.97244 16.938L3.9009 17.1379L3.83159 17.3383L3.76449 17.5392L3.69962 17.7404L3.6369 17.9425L3.57646 18.1448L3.51822 18.3476L3.46219 18.5508L3.40839 18.7545L3.35683 18.9585L3.30751 19.1629L3.26042 19.3677L3.21557 19.5728L3.17297 19.7782L3.1326 19.9838L3.09449 20.1898L3.05862 20.396L3.025 20.6024L2.99363 20.809L2.96452 21.0158L2.93765 21.2227L2.91304 21.4298L2.89068 21.637L2.87058 21.8443L2.85272 22.0516L2.83712 22.2591L2.82378 22.4666L2.81268 22.674L2.80383 22.8815L2.79723 23.0888L2.79289 23.2962L2.79078 23.5035L2.79092 23.7108L2.7933 23.9178L2.79792 24.1249L2.80477 24.3317L2.81385 24.5383L2.82518 24.7448L2.83872 24.9509L2.85449 25.1569L2.87248 25.3626L2.89269 25.568L2.91509 25.7733L2.93972 25.978L2.96654 26.1826L2.99555 26.3867L3.02677 26.5904L3.06018 26.7938L3.09575 26.9967L3.13351 27.1992L3.17344 27.4012L3.21553 27.6027L3.25977 27.8038L3.30617 28.0043L3.35471 28.2043L3.40539 28.4037L3.45819 28.6026L3.51313 28.8009L3.57016 28.9984L3.62932 29.1954L3.69057 29.3918L3.75391 29.5875L3.81934 29.7825L3.88681 29.9767L3.95637 30.1702L4.02799 30.3629L4.10165 30.555L4.17733 30.7461L4.25508 30.9366L4.3348 31.1261L4.41653 31.3149L4.50028 31.5027L4.58601 31.6896L4.67372 31.8758L4.76339 32.061L4.85501 32.2452L4.94857 32.4285L5.04407 32.6108L5.14148 32.7921L5.24081 32.9725L5.34202 33.1518L5.44513 33.3301L5.5501 33.5073L5.65693 33.6834L5.7656 33.8585L5.87613 34.0324L5.98842 34.2052L6.10259 34.3769L6.21851 34.5474L6.33623 34.7168L6.45572 34.885L6.57694 35.0519L6.6999 35.2177L6.82462 35.3823L6.95101 35.5455L7.07914 35.7076L7.20889 35.8683L7.34038 36.0277L7.47344 36.1858L7.60819 36.3426L7.74458 36.4982L7.88251 36.6522L8.02207 36.805L8.16319 36.9563L8.30591 37.1063L8.45014 37.2549L8.59586 37.402L8.74313 37.5477L8.89188 37.692L9.04215 37.8349L9.19384 37.9761L9.34701 38.116L9.50156 38.2543L9.65753 38.3912L9.81494 38.5266L9.97369 38.6603L10.1337 38.7925L10.2952 38.9232L10.4581 39.0522L10.622 39.1798L10.7875 39.3058L10.9541 39.43L11.1219 39.5527L11.291 39.6738L11.4614 39.7933L11.6329 39.911L11.8056 40.0271L11.9794 40.1416L12.1545 40.2544L12.3305 40.3654L12.5079 40.4749L12.6861 40.5826L12.8655 40.6885L13.046 40.7928L13.2273 40.8953L13.4099 40.9961L13.5932 41.0951L13.7777 41.1924L13.963 41.2878L14.1493 41.3816L14.3364 41.4735L14.5245 41.5637L14.7135 41.652L14.9033 41.7386L15.0939 41.8234L15.2853 41.9063L15.4774 41.9874L15.6705 42.0667L15.8642 42.1441L16.0587 42.2197L16.2539 42.2935L16.4497 42.3653L16.6463 42.4354L16.8433 42.5036L17.0411 42.5699L17.2396 42.6343L17.4386 42.6969L17.6381 42.7576L17.8381 42.8163L18.0388 42.8733L18.2399 42.9283L18.4415 42.9813L18.6436 43.0326L18.846 43.0819L19.0489 43.1293L19.2521 43.1748L19.4559 43.2184L19.6599 43.26L19.8641 43.2998L20.0689 43.3376L20.2738 43.3735L20.479 43.4075L20.6845 43.4395L20.8902 43.4696L21.0961 43.4978L21.3023 43.5241L21.5085 43.5485L21.7149 43.5709L21.9214 43.5913L22.128 43.61L22.3348 43.6266L22.5416 43.6413L22.7484 43.6541L22.9552 43.665L23.162 43.6738L23.3688 43.6809L23.5756 43.686L23.7823 43.6891L23.9889 43.6903L24.1954 43.6896L24.4018 43.687L24.608 43.6826L24.814 43.6761L25.0199 43.6678L25.2256 43.6576L25.431 43.6454L25.6362 43.6315L25.8412 43.6155L26.0458 43.5977L26.25 43.5779L26.454 43.5563L26.6576 43.5329L26.8608 43.5076L27.0637 43.4803L27.2661 43.4512L27.4681 43.4203L27.6697 43.3875L27.8708 43.3528L28.0713 43.3163L28.2714 43.278L28.471 43.2378L28.6699 43.1959L28.8683 43.152L29.0662 43.1063L29.2634 43.059L29.4599 43.0096L29.6558 42.9586L29.8511 42.9058L30.0457 42.8511L30.2396 42.7948L30.4327 42.7367L30.6252 42.6767L30.8168 42.6151L31.0075 42.5517L31.1977 42.4865L31.387 42.4196L31.5754 42.351L31.763 42.2808L31.9496 42.2088L32.1353 42.1351L32.3203 42.0597L32.5042 41.9827L32.6871 41.9041L32.8693 41.8237L33.0504 41.7417L33.2304 41.6582L33.4096 41.5728L33.5875 41.486L33.7645 41.3976L33.9406 41.3075L34.1153 41.2159L34.2891 41.1227L34.4617 41.028L34.6334 40.9317L34.8036 40.834L34.973 40.7345L35.1409 40.6337L35.3077 40.5313L35.4734 40.4275L35.638 40.322L35.8009 40.2154L35.9628 40.1071L36.1235 39.9975L36.2829 39.8865L36.441 39.7738L36.5976 39.6601L36.7533 39.5446L36.9073 39.428L37.0599 39.3101L37.2115 39.1907L37.3615 39.0699L37.5099 38.9479L37.6572 38.8245L37.8029 38.7L37.9472 38.5741L38.0902 38.4469L38.2314 38.3186L38.3714 38.1888L38.5099 38.0579L38.6469 37.9259L38.7823 37.7926L38.9162 37.6583L39.0484 37.5228L39.1794 37.3858L39.3086 37.248L39.4364 37.109L39.5624 36.969L39.687 36.8277L39.8098 36.6855L39.931 36.5422L40.0508 36.3978L40.1688 36.2526L40.2853 36.1061L40.3999 35.9588L40.5131 35.8104L40.6247 35.661L40.7341 35.511L40.8422 35.3597L40.9485 35.2078L41.0531 35.0547L41.1562 34.9008L41.2572 34.7462L41.3566 34.5908L41.4544 34.4341L41.5502 34.2771L41.6444 34.1191L41.7369 33.9602L41.8274 33.8009L41.9163 33.6404L42.0034 33.4793L42.0885 33.318L42.172 33.1554L42.2538 32.9922L42.3336 32.8286L42.4116 32.6643L42.4878 32.4993L42.5621 32.3338L42.6347 32.1675L42.7053 32.0007L42.7741 31.8337L42.8411 31.6655L42.9061 31.4974L42.9695 31.3284L43.0309 31.1591L43.0904 30.9892L43.1479 30.8193L43.2038 30.6482L43.2576 30.4773L43.3096 30.3058L43.3597 30.1341L43.408 29.9617L43.4542 29.7893L43.4987 29.6163L43.5412 29.443L43.5819 29.2696L43.6206 29.0958L43.6573 28.922L43.6923 28.7475L43.7253 28.5734L43.7564 28.3986L43.7855 28.2237L43.8128 28.0488L43.8382 27.8736L43.8616 27.6986L43.8832 27.5228L43.9028 27.3477L43.9205 27.172L43.9362 26.9967L43.9502 26.8208L43.9622 26.6455L43.9722 26.4697L43.9804 26.2938L43.9866 26.1184L43.9911 25.9433L43.9935 25.7675L43.9941 25.592L43.9928 25.4168L43.9895 25.2417L43.9844 25.0666L43.9773 24.8921L43.9684 24.717L43.9576 24.5427L43.9449 24.3684L43.9304 24.1946L43.9139 24.0205L43.8957 23.8472L43.8755 23.6738L43.8534 23.501L43.8296 23.3283L43.8039 23.1561L43.7762 22.9838L43.7468 22.8124L43.7156 22.6415L43.6824 22.4704L43.6474 22.3L43.6107 22.1302L43.572 21.9603L43.5318 21.7917L43.4895 21.6228L43.4457 21.4551L43.3997 21.2871L43.3522 21.1204L43.3029 20.954L43.2517 20.7878L43.1989 20.6227L43.1443 20.4582L43.0878 20.2937L43.0298 20.1305L42.9698 19.9675L42.9084 19.8054L42.845 19.6437L42.7801 19.4832L42.7133 19.3228L42.6449 19.1634L42.5749 19.005L42.5033 18.8472L42.4296 18.6898L42.3548 18.5337L42.2779 18.3778L42.1996 18.2234L42.1197 18.0695L42.038 17.9162L41.9549 17.7642L41.8701 17.6128L41.7836 17.4621L41.696 17.3129L41.6063 17.1641L41.5154 17.0165L41.4226 16.8695L41.3288 16.7241L41.2329 16.579L41.1359 16.4352L41.0371 16.2921L40.9371 16.1503L40.8357 16.0098L40.7324 15.8698L40.6279 15.731L40.5221 15.5933L40.4147 15.4568L40.3059 15.3211L40.1958 15.1868L40.0843 15.0534L39.9714 14.9212L39.8571 14.7902L39.7414 14.6602L39.6244 14.5315L39.5062 14.4038L39.3868 14.2775L39.266 14.1523L39.1436 14.028L39.0206 13.9055L38.8955 13.7837L38.7699 13.6636L38.6428 13.5444L38.5146 13.4267L38.3848 13.3099L38.2544 13.1949L38.1224 13.0808L37.9893 12.968L37.8555 12.8568L37.7204 12.7468L37.5837 12.6378L37.4463 12.5304L37.308 12.4244L37.1684 12.3198L37.0277 12.2163L36.8864 12.1146L36.7435 12.0137L36.6 11.9148L36.4554 11.817L36.3097 11.7205L36.1635 11.6257L36.0156 11.5319L35.8678 11.4401L35.7182 11.3493L35.5682 11.2601L35.417 11.1723L35.2652 11.0859L35.1126 11.0011L34.9593 10.9179L34.8046 10.8358L34.6499 10.7555L34.4939 10.6766L34.3373 10.5992L34.1801 10.5234L34.022 10.449L33.8632 10.376L33.7038 10.3048L33.5436 10.2349L33.383 10.1667L33.2216 10.0999L33.0545 10.0326L32.8973 9.97111L32.7337 9.90884L32.5704 9.8485L32.4057 9.7893L32.2411 9.73202L32.0757 9.67611L31.91 9.62191L31.7435 9.56907L31.577 9.51805L31.4097 9.4685L31.242 9.42055L31.0742 9.3743L30.9058 9.32948L30.7367 9.28621L30.5678 9.24469L30.3986 9.20476L30.2283 9.1663L30.0586 9.1296L29.8881 9.09438L29.7176 9.06085L29.5465 9.02885L29.3756 8.99853L29.2042 8.96978L29.0329 8.9427L28.8609 8.91714L28.6893 8.89326L28.5173 8.87097L28.3451 8.85027L28.1729 8.8312L28.0007 8.81377L27.8283 8.79793L27.6559 8.78371L27.4833 8.77108L27.3106 8.76006L27.1384 8.75067L26.9661 8.74289L26.7932 8.73669L26.6212 8.73213L26.4489 8.72915L26.2767 8.72778L26.1042 8.72801L26.0696 8.72839L26.124 13.0718L26.2218 13.0713L26.3477 13.072L26.4736 13.0738L26.5996 13.0769L26.7257 13.0811L26.8518 13.0866L26.978 13.0932L27.1042 13.1009L27.2305 13.1099L27.3567 13.12L27.483 13.1313L27.6091 13.1438L27.7353 13.1576L27.8615 13.1725L27.9875 13.1885L28.1135 13.2059L28.2393 13.2243L28.3651 13.244L28.4909 13.2649L28.6164 13.2869L28.7418 13.3102L28.8671 13.3346L28.9923 13.3602L29.1172 13.387L29.2419 13.4151L29.3664 13.4443L29.4907 13.4746L29.6147 13.5062L29.7386 13.539L29.8622 13.5729L29.9856 13.608L30.1086 13.6443L30.2312 13.6818L30.3536 13.7204L30.4758 13.7603L30.5975 13.8013L30.7189 13.8435L30.8399 13.8868L30.9606 13.9313L31.0808 13.977L31.2007 14.0238L31.3201 14.0719L31.4392 14.121L31.5578 14.1713L31.6758 14.2227L31.7934 14.2753L31.9107 14.3291L32.0273 14.384L32.1435 14.44L32.2592 14.4971L32.3743 14.5553L32.4889 14.6148L32.6029 14.6752L32.7163 14.7368L32.8292 14.7995L32.9415 14.8634L33.0531 14.9283L33.1642 14.9943L33.2746 15.0615L33.3844 15.1296L33.4935 15.1988L33.6019 15.2692L33.7097 15.3407L33.8167 15.413L33.9231 15.4866L34.0287 15.5612L34.1337 15.6368L34.2377 15.7135L34.3412 15.7912L34.4438 15.8699L34.5457 15.9496L34.6467 16.0304L34.747 16.1121L34.8465 16.1949L34.9452 16.2786L35.043 16.3634L35.1398 16.4491L35.2359 16.5358L35.3311 16.6234L35.4254 16.712L35.5189 16.8016L35.6114 16.8921L35.7031 16.9835L35.7937 17.0759L35.8835 17.1692L35.9723 17.2634L36.0601 17.3584L36.147 17.4544L36.2329 17.5512L36.3179 17.649L36.4018 17.7476L36.4847 17.847L36.5666 17.9474L36.6474 18.0485L36.7272 18.1505L36.806 18.2533L36.8837 18.3569L36.9603 18.4613L37.0359 18.5666L37.1103 18.6726L37.1836 18.7793L37.2559 18.8869L37.327 18.9952L37.3971 19.1042L37.466 19.214L37.5337 19.3245L37.6003 19.4357L37.6657 19.5476L37.7299 19.6602L37.793 19.7735L37.8549 19.8875L37.9155 20.0021L37.9751 20.1175L38.0334 20.2334L38.0904 20.3499L38.1462 20.4671L38.2008 20.5849L38.2542 20.7033L38.3063 20.8222L38.3572 20.9418L38.4067 21.0619L38.455 21.1825L38.502 21.3037L38.5477 21.4254L38.5923 21.5477L38.6355 21.6704L38.6772 21.7937L38.7178 21.9174L38.757 22.0416L38.7949 22.1662L38.8316 22.2913L38.8667 22.4169L38.9007 22.5428L38.9332 22.6692L38.9644 22.7959L38.9943 22.923L39.0227 23.0505L39.0498 23.1784L39.0755 23.3066L39.0999 23.4352L39.1229 23.5641L39.1445 23.6932L39.1647 23.8227L39.1835 23.9524L39.2009 24.0824L39.217 24.2127L39.2315 24.3433L39.2447 24.474L39.2566 24.605L39.2669 24.7361L39.2759 24.8675L39.2834 24.999L39.2895 25.1307L39.2942 25.2626L39.2974 25.3945L39.2992 25.5267L39.2996 25.659L39.2985 25.7912L39.296 25.9236L39.292 26.0561L39.2866 26.1887L39.2798 26.3212L39.2715 26.4538L39.2618 26.5866L39.2506 26.7192L39.2379 26.8518L39.2239 26.9844L39.2082 27.1169L39.1913 27.2495L39.1728 27.3819L39.1529 27.5143L39.1316 27.6466L39.1088 27.7787L39.0845 27.9108L39.0587 28.0427L39.0316 28.1745L39.0029 28.3061L38.9728 28.4376L38.9414 28.5688L38.9084 28.6999L38.8739 28.8307L38.838 28.9613L38.8007 29.0917L38.7619 29.2218L38.7217 29.3516L38.6801 29.4811L38.637 29.6104L38.5924 29.7394L38.5464 29.8679L38.499 29.9962L38.4503 30.1242L38.4 30.2517L38.3483 30.3788L38.2952 30.5057L38.2408 30.632L38.1848 30.758L38.1275 30.8835L38.0688 31.0086L38.0087 31.1333L37.9471 31.2574L37.8842 31.381L37.8199 31.5042L37.7541 31.6268L37.6871 31.749L37.6186 31.8704L37.5488 31.9915L37.4776 32.1119L37.4052 32.2318L37.3312 32.351L37.256 32.4697L37.1794 32.5877L37.1015 32.7052L37.0222 32.8219L36.9417 32.938L36.8597 33.0534L36.7766 33.1682L36.6921 33.2822L36.6063 33.3955L36.5192 33.5082L36.4308 33.6201L36.3412 33.7312L36.2502 33.8416L36.1581 33.9511L36.0646 34.06L35.9699 34.1679L35.874 34.2752L35.7768 34.3816L35.6784 34.4871L35.5788 34.5918L35.478 34.6957L35.376 34.7986L35.2729 34.9008L35.1685 35.0019L35.063 35.1023L34.9562 35.2016L34.8484 35.3001L34.7393 35.3976L34.6293 35.4941L34.5181 35.5897L34.4056 35.6843L34.2922 35.7779L34.1776 35.8707L34.062 35.9622L33.9453 36.0529L33.8275 36.1425L33.7086 36.231L33.5887 36.3185L33.4679 36.405L33.346 36.4903L33.223 36.5746L33.0991 36.6579L32.9742 36.74L32.8483 36.821L32.7213 36.9009L32.5935 36.9796L32.4648 37.0573L32.3352 37.1337L32.2045 37.209L32.0731 37.2832L31.9406 37.3561L31.8074 37.4278L31.6732 37.4984L31.5382 37.5678L31.4023 37.636L31.2657 37.7029L31.1281 37.7686L30.9899 37.833L30.8508 37.8963L30.7109 37.9583L30.5702 38.019L30.4289 38.0784L30.2868 38.1366L30.1438 38.1934L30.0003 38.249L29.8561 38.3033L29.7111 38.3562L29.5655 38.4079L29.4192 38.4583L29.2724 38.5073L29.1248 38.5549L28.9767 38.6012L28.8279 38.6461L28.6786 38.6898L28.5287 38.732L28.3782 38.7728L28.2272 38.8124L28.0757 38.8504L27.9236 38.8871L27.7711 38.9225L27.6181 38.9565L27.4645 38.989L27.3106 39.0201L27.1562 39.0497L27.0014 39.078L26.8462 39.105L26.6906 39.1304L26.5345 39.1544L26.3783 39.1769L26.2216 39.198L26.0645 39.2177L25.9072 39.236L25.7496 39.2527L25.5917 39.268L25.4335 39.2819L25.2751 39.2943L25.1164 39.3052L24.9575 39.3146L24.7984 39.3226L24.6392 39.3291L24.4797 39.3341L24.3201 39.3376L24.1603 39.3396L24.0004 39.3402L23.8404 39.3393L23.6804 39.3368L23.5202 39.3329L23.36 39.3275L23.1998 39.3205L23.0395 39.3121L22.8793 39.3022L22.719 39.2909L22.5588 39.2779L22.3985 39.2635L22.2383 39.2476L22.0782 39.2302L21.9183 39.2113L21.7583 39.1909L21.5986 39.169L21.439 39.1455L21.2795 39.1207L21.1201 39.0942L20.961 39.0663L20.8021 39.0369L20.6435 39.0059L20.4849 38.9735L20.3268 38.9396L20.1688 38.9042L20.0111 38.8672L19.8538 38.8288L19.6967 38.789L19.54 38.7476L19.3838 38.7048L19.2277 38.6604L19.0721 38.6146L18.9169 38.5672L18.7622 38.5185L18.6078 38.4683L18.4539 38.4166L18.3006 38.3634L18.1476 38.3087L17.9952 38.2526L17.8432 38.1951L17.6918 38.136L17.5409 38.0755L17.3907 38.0137L17.241 37.9503L17.0919 37.8855L16.9434 37.8194L16.7956 37.7518L16.6483 37.6827L16.5017 37.6122L16.3559 37.5404L16.2107 37.4671L16.0662 37.3925L15.9224 37.3165L15.7794 37.239L15.637 37.1602L15.4956 37.08L15.3548 36.9984L15.2149 36.9155L15.0758 36.8312L14.9375 36.7457L14.8001 36.6586L14.6636 36.5703L14.5278 36.4808L14.3931 36.3899L14.2591 36.2976L14.1262 36.2041L13.994 36.1092L13.863 36.013L13.7329 35.9157L13.6038 35.8169L13.4756 35.717L13.3484 35.6158L13.2223 35.5134L13.0972 35.4096L12.9732 35.3048L12.8502 35.1986L12.7283 35.0913L12.6075 34.9828L12.4877 34.873L12.3692 34.7621L12.2518 34.6501L12.1355 34.5368L12.0203 34.4225L11.9063 34.3069L11.7936 34.1903L11.682 34.0725L11.5716 33.9536L11.4625 33.8336L11.3545 33.7126L11.248 33.5904L11.1425 33.4671L11.0384 33.3429L10.9356 33.2176L10.8341 33.0912L10.7338 32.9638L10.6348 32.8355L10.5373 32.7061L10.4412 32.5758L10.3462 32.4444L10.2527 32.3121L10.1607 32.179L10.0699 32.0448L9.98062 31.9096L9.89273 31.7736L9.80625 31.6367L9.72121 31.499L9.63762 31.3602L9.55547 31.2208L9.47481 31.0803L9.39561 30.9392L9.3179 30.7971L9.24168 30.6543L9.16698 30.5107L9.09379 30.3662L9.02212 30.2211L8.95199 30.0751L8.88339 29.9285L8.81636 29.7811L8.75088 29.6329L8.68697 29.4842L8.62465 29.3348L8.5639 29.1845L8.50475 29.0337L8.4472 28.8824L8.39126 28.7302L8.33695 28.5776L8.28425 28.4243L8.23319 28.2704L8.18377 28.1161L8.136 27.9611L8.08988 27.8057L8.04541 27.6496L8.00263 27.493L7.96152 27.3361L7.92207 27.1786L7.88433 27.0207L7.84827 26.8622L7.81391 26.7035L7.78126 26.5443L7.75031 26.3846L7.72108 26.2246L7.69357 26.0643L7.66778 25.9036L7.64372 25.7426L7.6214 25.5812L7.60082 25.4195L7.58198 25.2576L7.56488 25.0954L7.54953 24.9329L7.53594 24.7702L7.52411 24.6074L7.51403 24.4442L7.50572 24.2809L7.49918 24.1175L7.49442 23.9538L7.49142 23.7901L7.4902 23.6261L7.49076 23.4621L7.49309 23.298L7.49722 23.134L7.50311 22.9698L7.5108 22.8054L7.52028 22.6412L7.53154 22.4769L7.54459 22.3127L7.55943 22.1484L7.57606 21.9843L7.59449 21.8201L7.6147 21.6561L7.63671 21.4921L7.66051 21.3283L7.68609 21.1645L7.71348 21.001L7.74264 20.8376L7.7736 20.6744L7.80635 20.5113L7.84089 20.3485L7.8772 20.186L7.91532 20.0236L7.95521 19.8616L7.99687 19.6998L8.04032 19.5383L8.08555 19.3771L8.13254 19.2162L8.18131 19.0558L8.23186 18.8957L8.28415 18.7359L8.33823 18.5765L8.39406 18.4176L8.45163 18.2591L8.51098 18.101L8.57206 17.9434L8.63488 17.7862L8.69945 17.6296L8.76575 17.4735L8.83378 17.3179L8.90354 17.1629L8.97502 17.0084L9.04822 16.8545L9.12312 16.7012L9.19973 16.5485L9.27803 16.3965L9.35804 16.2451L9.43973 16.0943L9.5231 15.9443L9.60813 15.7949L9.69485 15.6462L9.78322 15.4983L9.87324 15.351L9.96491 15.2046L10.0582 15.059L10.1532 14.9141L10.2497 14.77L10.3479 14.6267L10.4478 14.4843L10.549 14.3427L10.6521 14.202L10.7566 14.0621L10.8627 13.9232L10.9705 13.7852L11.0797 13.648L11.1906 13.5119L11.3029 13.3767L11.4168 13.2425L11.5321 13.1093L11.649 12.977L11.7675 12.8458L11.8873 12.7155L12.0087 12.5865L12.1316 12.4584L12.2558 12.3313L12.3815 12.2054L12.5087 12.0805L12.6373 11.9569L12.7672 11.8343L12.8986 11.7128L13.0315 11.5926L13.1656 11.4734L13.3011 11.3555L13.4381 11.2387L13.5763 11.1233L13.7158 11.009L13.8566 10.8959L13.9988 10.7841L14.1423 10.6735L14.287 10.5642L14.433 10.4562L14.5803 10.3495L14.7287 10.2442L14.8785 10.1401L15.0293 10.0374L15.1814 9.936L15.3348 9.836L15.4892 9.73736L15.6447 9.6402L15.8016 9.5443L15.9594 9.44986L16.1184 9.35684L16.2785 9.26524L16.4396 9.17508L16.6018 9.08638L16.7651 8.99913L16.9294 8.91334L17.0946 8.82906L17.261 8.74626L17.4283 8.66497L17.5965 8.58518L17.7657 8.50692L17.9359 8.43019L18.107 8.35501L18.279 8.28138L18.4519 8.2093L18.6257 8.1388L18.8003 8.06988L18.9757 8.00253L19.1519 7.9368L19.329 7.87266L19.5069 7.81014L19.6856 7.74924L19.865 7.68997L20.0451 7.63233L20.226 7.57634L20.4074 7.52201L20.5897 7.46933L20.7726 7.41832L20.9562 7.36899L21.1403 7.32133L21.3251 7.27536L21.5105 7.23109L21.6965 7.18852L21.883 7.14767L22.0701 7.10851L22.2577 7.07108L22.4457 7.03538L22.6344 7.00141L22.8234 6.96917L23.0129 6.93867L23.2028 6.90992L23.3932 6.88292L23.5838 6.85768L23.7749 6.83419L23.8462 6.8261ZM23.9268 13.2683L23.8719 8.87713L23.7152 8.89785L23.5469 8.92175L23.3784 8.94724L23.211 8.97418L23.0433 9.00277L22.8765 9.03283L22.7101 9.06443L22.5442 9.09751L22.3787 9.13216L22.2136 9.16834L22.049 9.20601L21.885 9.24517L21.7212 9.2859L21.5639 9.32657L21.3963 9.37168L21.2344 9.4168L21.0732 9.46339L20.9129 9.51134L20.7529 9.56089L20.5935 9.61191L20.4349 9.6643L20.2771 9.71805L20.1199 9.77339L19.9634 9.82998L19.8075 9.88816L19.6528 9.94759L19.4981 10.0086L19.3446 10.0709L19.1919 10.1345L19.0402 10.1995L18.8888 10.266L18.7384 10.3338L18.5892 10.4028L18.4403 10.4734L18.2929 10.5451L18.1458 10.6184L18.0001 10.6926L17.8546 10.7686L17.7106 10.8454L17.5676 10.9237L17.4253 11.0034L17.284 11.0842L17.1435 11.1665L17.0044 11.2496L16.8659 11.3343L16.7287 11.4201L16.5925 11.507L16.4573 11.5953L16.3229 11.6849L16.19 11.7752L16.0579 11.8671L15.9269 11.9601L15.797 12.0542L15.6684 12.1493L15.5406 12.2458L15.4142 12.3432L15.2889 12.4417L15.1646 12.5416L15.0418 12.6421L14.9199 12.7441L14.7992 12.847L14.6798 12.9509L14.5617 13.0558L14.4444 13.1619L14.3289 13.2687L14.2144 13.3767L14.101 13.4858L13.989 13.5957L13.8782 13.7067L13.7688 13.8185L13.6607 13.9312L13.5537 14.045L13.448 14.1598L13.3441 14.2751L13.2411 14.3916L13.1395 14.509L13.0393 14.627L12.9405 14.7459L12.8428 14.8659L12.7467 14.9865L12.6519 15.1079L12.5585 15.2302L12.4665 15.3533L12.376 15.4769L12.2868 15.6015L12.199 15.7268L12.1126 15.8528L12.0278 15.9794L11.9443 16.1068L11.8623 16.2351L11.7816 16.3637L11.7025 16.4932L11.6248 16.6233L11.5487 16.7537L11.4739 16.8851L11.4005 17.0171L11.3288 17.1494L11.2585 17.2826L11.1898 17.4162L11.1224 17.5502L11.0567 17.685L10.9923 17.8201L10.9296 17.9558L10.8683 18.0919L10.8086 18.2285L10.7504 18.3655L10.6936 18.5032L10.6384 18.6411L10.5849 18.7794L10.5327 18.9183L10.4823 19.0572L10.4332 19.1968L10.3858 19.3367L10.3399 19.4769L10.2956 19.6174L10.2527 19.7582L10.2116 19.8992L10.1719 20.0407L10.1338 20.1822L10.0972 20.3242L10.0622 20.4663L10.0288 20.6086L9.99696 20.7512L9.96671 20.894L9.93799 21.0368L9.91085 21.18L9.8853 21.3232L9.86128 21.4666L9.83888 21.6099L9.81801 21.7535L9.79874 21.8971L9.78102 22.0409L9.76488 22.1846L9.75031 22.3285L9.73732 22.4724L9.72589 22.6161L9.71603 22.7601L9.70772 22.904L9.70099 23.0477L9.69583 23.1915L9.69222 23.3351L9.69018 23.4787L9.68969 23.6224L9.69076 23.7658L9.69338 23.9091L9.69756 24.0523L9.70327 24.1952L9.71055 24.3382L9.71935 24.4809L9.7297 24.6233L9.74159 24.7657L9.75501 24.9077L9.76996 25.0495L9.78644 25.1911L9.80443 25.3325L9.82395 25.4736L9.84498 25.6143L9.86753 25.7549L9.89156 25.8949L9.91711 26.0348L9.94416 26.1743L9.97269 26.3133L10.0027 26.4521L10.0342 26.5904L10.0672 26.7285L10.1016 26.8659L10.1375 27.003L10.1749 27.1397L10.2137 27.276L10.2539 27.4117L10.2957 27.547L10.3388 27.6818L10.3834 27.8161L10.4294 27.95L10.4768 28.0832L10.5256 28.2158L10.5758 28.3479L10.6274 28.4795L10.6804 28.6105L10.7348 28.7409L10.7905 28.8707L10.8476 28.9999L10.9061 29.1284L10.9659 29.2562L11.027 29.3835L11.0895 29.51L11.1534 29.6359L11.2184 29.7611L11.2849 29.8855L11.3526 30.0094L11.4216 30.1325L11.4919 30.2547L11.5634 30.3763L11.6363 30.4971L11.7103 30.6171L11.7857 30.7363L11.8623 30.8549L11.94 30.9725L12.019 31.0893L12.0993 31.2054L12.1805 31.3204L12.2632 31.4349L12.3468 31.5483L12.4318 31.6609L12.5179 31.7726L12.6051 31.8834L12.6934 31.9933L12.7829 32.1024L12.8734 32.2104L12.9651 32.3176L13.0579 32.4238L13.1517 32.5292L13.2467 32.6334L13.3427 32.7369L13.4396 32.8392L13.5377 32.9407L13.6367 33.041L13.7368 33.1404L13.8378 33.2388L13.9399 33.3362L14.0429 33.4326L14.1469 33.5279L14.2519 33.6222L14.3577 33.7154L14.4646 33.8077L14.5722 33.8987L14.6808 33.9887L14.7904 34.0777L14.9008 34.1655L15.0121 34.2524L15.1241 34.3379L15.2371 34.4225L15.3508 34.5059L15.4654 34.5883L15.5809 34.6694L15.6969 34.7494L15.8138 34.8283L15.9315 34.906L16.05 34.9826L16.1693 35.058L16.2892 35.1322L16.4098 35.2053L16.5311 35.2773L16.653 35.3479L16.7757 35.4175L16.899 35.4858L17.0229 35.5528L17.1476 35.6187L17.2726 35.6834L17.3985 35.7469L17.5249 35.8092L17.6517 35.8701L17.7793 35.93L17.9074 35.9885L18.036 36.0459L18.165 36.1019L18.2947 36.1568L18.4247 36.2103L18.5552 36.2626L18.6863 36.3137L18.8178 36.3635L18.9496 36.412L19.0819 36.4593L19.2147 36.5053L19.3478 36.5501L19.4812 36.5935L19.6151 36.6358L19.7493 36.6766L19.8838 36.7162L20.0187 36.7545L20.1538 36.7916L20.2892 36.8274L20.4249 36.8618L20.5609 36.8951L20.6971 36.9269L20.8335 36.9575L20.9702 36.9868L21.1072 37.0149L21.2442 37.0416L21.3814 37.0669L21.5189 37.091L21.6563 37.1138L21.7941 37.1354L21.9318 37.1555L22.0697 37.1745L22.2077 37.1921L22.3457 37.2085L22.4839 37.2235L22.622 37.2373L22.7602 37.2496L22.8985 37.2608L23.0367 37.2705L23.175 37.2792L23.3131 37.2863L23.4512 37.2924L23.5895 37.297L23.7275 37.3004L23.8654 37.3025L24.0033 37.3033L24.141 37.3028L24.2787 37.301L24.4162 37.298L24.5535 37.2937L24.6908 37.2882L24.8277 37.2812L24.9645 37.2732L25.1011 37.2637L25.2375 37.253L25.3736 37.2411L25.5096 37.2279L25.6453 37.2135L25.7807 37.1978L25.9158 37.1809L26.0506 37.1628L26.1851 37.1434L26.3193 37.1227L26.4529 37.1009L26.5865 37.0777L26.7196 37.0534L26.8523 37.0279L26.9848 37.0011L27.1166 36.9732L27.2481 36.9441L27.3791 36.9136L27.5098 36.8821L27.64 36.8494L27.7698 36.8154L27.899 36.7803L28.0278 36.7441L28.1559 36.7067L28.2836 36.668L28.411 36.6283L28.5376 36.5874L28.6637 36.5453L28.7892 36.5021L28.9141 36.4578L29.0385 36.4124L29.1622 36.3658L29.2854 36.318L29.408 36.2693L29.5298 36.2194L29.6511 36.1685L29.7716 36.1165L29.8916 36.0633L30.0109 36.0091L30.1292 35.954L30.2473 35.8975L30.3643 35.8402L30.4808 35.7817L30.5963 35.7224L30.7112 35.6619L30.8255 35.6004L30.9388 35.5379L31.0514 35.4744L31.1633 35.41L31.2742 35.3445L31.3846 35.278L31.4938 35.2108L31.6024 35.1424L31.7103 35.0729L31.8171 35.0027L31.9229 34.9317L32.0283 34.8594L32.1325 34.7866L32.2359 34.7126L32.3385 34.6377L32.4398 34.5621L32.5407 34.4854L32.6406 34.4079L32.7391 34.3298L32.8373 34.2503L32.9341 34.1704L33.03 34.0898L33.1253 34.0078L33.2191 33.9255L33.3122 33.8423L33.4044 33.7582L33.4954 33.6734L33.5855 33.5877L33.6747 33.5013L33.7627 33.4142L33.8496 33.3263L33.9357 33.2377L34.0208 33.1484L34.1045 33.0585L34.1876 32.9676L34.2693 32.8762L34.3499 32.7842L34.4297 32.6912L34.5082 32.598L34.5857 32.5038L34.6622 32.4092L34.7375 32.3137L34.8117 32.2178L34.8847 32.1215L34.9568 32.0241L35.0276 31.9265L35.0973 31.8282L35.1661 31.7292L35.2333 31.63L35.2998 31.53L35.3649 31.4294L35.429 31.3285L35.4918 31.227L35.5537 31.1249L35.6141 31.0227L35.6736 30.9195L35.7318 30.8162L35.7887 30.7125L35.8447 30.6079L35.8992 30.5036L35.9528 30.3982L36.0049 30.293L36.0563 30.1868L36.106 30.0808L36.1548 29.9738L36.2023 29.867L36.2485 29.7598L36.2937 29.652L36.3376 29.544L36.3801 29.4359L36.4217 29.3271L36.4618 29.2183L36.5008 29.1092L36.5386 28.9998L36.5752 28.89L36.6106 28.7801L36.6447 28.6701L36.6776 28.5596L36.7091 28.4492L36.7396 28.3384L36.7688 28.2275L36.7967 28.1166L36.8235 28.0051L36.8489 27.8937L36.8733 27.7823L36.8962 27.6708L36.9181 27.5591L36.9386 27.4469L36.9579 27.3352L36.976 27.2232L36.9928 27.111L37.0084 26.9991L37.0228 26.8869L37.036 26.7744L37.0479 26.6627L37.0587 26.5501L37.0682 26.4379L37.0763 26.326L37.0834 26.2137L37.0892 26.1017L37.0937 25.9898L37.0971 25.8775L37.0991 25.7659L37.1001 25.6538L37.0997 25.5421L37.0983 25.4304L37.0955 25.3192L37.0916 25.2077L37.0864 25.0965L37.0801 24.9857L37.0725 24.8745L37.0637 24.7637L37.0539 24.6535L37.0427 24.5429L37.0304 24.433L37.0168 24.3229L37.0022 24.2134L36.9863 24.104L36.9693 23.9946L36.9511 23.8858L36.9317 23.7773L36.9112 23.669L36.8895 23.561L36.8666 23.4529L36.8426 23.3457L36.8175 23.2387L36.7912 23.1319L36.7637 23.0253L36.7353 22.9196L36.7055 22.8136L36.6748 22.7085L36.6429 22.6035L36.6099 22.4992L36.5758 22.395L36.5405 22.2912L36.5043 22.1882L36.467 22.0854L36.4283 21.9828L36.389 21.8811L36.3483 21.7796L36.3066 21.6788L36.2639 21.5783L36.2201 21.4782L36.1753 21.379L36.1294 21.2799L36.0826 21.1816L36.0347 21.0838L35.9857 20.9863L35.9357 20.8894L35.8849 20.7934L35.8328 20.6976L35.78 20.6027L35.7262 20.5084L35.6712 20.4142L35.6155 20.3211L35.5586 20.2284L35.5009 20.1365L35.4421 20.0449L35.3827 19.9543L35.322 19.864L35.2607 19.7746L35.1982 19.6859L35.135 19.5978L35.0707 19.5102L35.0056 19.4235L34.9399 19.3376L34.8729 19.252L34.8054 19.1675L34.7367 19.0835L34.6676 19.0004L34.5973 18.9178L34.5262 18.8361L34.4543 18.7551L34.3817 18.6747L34.3084 18.5954L34.234 18.5166L34.1591 18.4387L34.0833 18.3615L34.007 18.2853L33.9294 18.2095L33.8515 18.1349L33.7726 18.0607L33.6931 17.9876L33.6131 17.9153L33.5322 17.8437L33.4505 17.7729L33.3682 17.7032L33.2852 17.6342L33.2014 17.5658L33.1175 17.4987L33.0324 17.432L32.9468 17.3665L32.8607 17.3018L32.7738 17.2377L32.6864 17.1748L32.5987 17.1128L32.5099 17.0515L32.4205 16.9909L32.3311 16.9317L32.2405 16.8729L32.15 16.8155L32.0587 16.7587L31.9667 16.7028L31.8742 16.6478L31.7816 16.594L31.688 16.5408L31.5942 16.4887L31.4997 16.4374L31.4052 16.3872L31.3099 16.3379L31.2142 16.2894L31.1181 16.2419L31.0217 16.1955L30.9247 16.1499L30.8273 16.1052L30.7297 16.0616L30.6319 16.019L30.533 15.977L30.4346 15.9363L30.3355 15.8966L30.2359 15.8576L30.1362 15.8198L30.0363 15.7829L29.936 15.747L29.8351 15.7119L29.7344 15.678L29.6331 15.645L29.5316 15.6129L29.4302 15.5819L29.3283 15.5519L29.2264 15.5228L29.1237 15.4946L29.0213 15.4676L28.9187 15.4415L28.8159 15.4163L28.7129 15.3921L28.6094 15.369L28.5062 15.3468L28.403 15.3257L28.2994 15.3054L28.1954 15.2861L28.0921 15.268L27.9881 15.2508L27.8843 15.2345L27.78 15.2192L27.6763 15.205L27.5718 15.1916L27.468 15.1794L27.3638 15.168L27.2596 15.1577L27.1556 15.1484L27.0513 15.14L26.9475 15.1326L26.8431 15.1262L26.7392 15.1208L26.6355 15.1163L26.5311 15.1128L26.4275 15.1103L26.3238 15.1088L26.2202 15.1083L26.1494 15.1085L26.2031 19.3987L26.2351 19.3988L26.2947 19.3996L26.3543 19.401L26.4141 19.4028L26.4738 19.4054L26.5337 19.4085L26.5936 19.4121L26.6536 19.4165L26.7136 19.4213L26.7737 19.4268L26.8338 19.4328L26.894 19.4394L26.9542 19.4467L27.0143 19.4545L27.0746 19.4629L27.1348 19.472L27.1951 19.4817L27.2552 19.4919L27.3154 19.5028L27.3755 19.5142L27.4357 19.5263L27.4958 19.539L27.5559 19.5522L27.6158 19.5661L27.6758 19.5805L27.7357 19.5957L27.7954 19.6113L27.8552 19.6276L27.9149 19.6445L27.9744 19.662L28.0338 19.6802L28.0932 19.699L28.1523 19.7183L28.2115 19.7382L28.2704 19.7587L28.3292 19.7799L28.3879 19.8016L28.4465 19.824L28.5048 19.8469L28.563 19.8704L28.6211 19.8946L28.6789 19.9194L28.7367 19.9447L28.7941 19.9708L28.8514 19.9972L28.9085 20.0244L28.9653 20.0522L29.0219 20.0805L29.0783 20.1095L29.1345 20.1391L29.1904 20.1692L29.2461 20.1999L29.3014 20.2311L29.3566 20.263L29.4114 20.2955L29.466 20.3286L29.5203 20.3621L29.5743 20.3963L29.6281 20.4312L29.6815 20.4666L29.7345 20.5025L29.7873 20.539L29.8397 20.576L29.8918 20.6136L29.9436 20.6518L29.995 20.6905L30.046 20.7299L30.0967 20.7696L30.1471 20.8101L30.197 20.851L30.2466 20.8925L30.2958 20.9345L30.3445 20.9771L30.3929 21.0202L30.4407 21.0638L30.4884 21.108L30.5354 21.1527L30.5821 21.1979L30.6284 21.2436L30.6742 21.2899L30.7195 21.3367L30.7644 21.384L30.8089 21.4317L30.8528 21.48L30.8963 21.5287L30.9394 21.5779L30.9818 21.6277L31.0238 21.6779L31.0654 21.7286L31.1064 21.7799L31.147 21.8315L31.1869 21.8836L31.2263 21.9361L31.2653 21.9892L31.3037 22.0427L31.3415 22.0967L31.3788 22.151L31.4157 22.2059L31.4518 22.2611L31.4874 22.3168L31.5225 22.3729L31.5569 22.4294L31.5909 22.4863L31.6241 22.5437L31.6569 22.6015L31.689 22.6596L31.7205 22.7182L31.7514 22.777L31.7817 22.8363L31.8113 22.8961L31.8404 22.9561L31.8688 23.0166L31.8967 23.0774L31.9238 23.1385L31.9503 23.2L31.9761 23.2618L32.0013 23.324L32.0259 23.3865L32.0498 23.4493L32.0729 23.5125L32.0955 23.5759L32.1173 23.6396L32.1385 23.7037L32.159 23.768L32.1788 23.8327L32.1979 23.8977L32.2163 23.9628L32.2341 24.0283L32.251 24.0941L32.2673 24.1601L32.2829 24.2262L32.2978 24.2928L32.312 24.3595L32.3253 24.4263L32.338 24.4936L32.35 24.561L32.3613 24.6285L32.3718 24.6963L32.3815 24.7643L32.3905 24.8325L32.3988 24.9009L32.4063 24.9694L32.413 25.038L32.419 25.1069L32.4243 25.176L32.4288 25.2451L32.4325 25.3144L32.4354 25.3838L32.4376 25.4534L32.439 25.523L32.4397 25.5928L32.4394 25.6626L32.4386 25.7326L32.4369 25.8027L32.4344 25.8728L32.4312 25.943L32.4271 26.0133L32.4223 26.0836L32.4166 26.154L32.4102 26.2244L32.403 26.2949L32.395 26.3653L32.3862 26.4358L32.3766 26.5063L32.3662 26.5769L32.3551 26.6474L32.3431 26.7178L32.3302 26.7883L32.3167 26.8587L32.3023 26.9292L32.2871 26.9995L32.2711 27.0699L32.2543 27.1401L32.2367 27.2103L32.2183 27.2804L32.1991 27.3505L32.1791 27.4204L32.1583 27.4903L32.1367 27.56L32.1142 27.6296L32.0911 27.6992L32.0671 27.7685L32.0422 27.8378L32.0167 27.9069L31.9901 27.9758L31.9629 28.0446L31.9349 28.1132L31.9061 28.1817L31.8765 28.2499L31.8461 28.3179L31.8149 28.3858L31.7829 28.4535L31.7501 28.5209L31.7165 28.588L31.6821 28.6551L31.647 28.7218L31.611 28.7883L31.5743 28.8545L31.5368 28.9204L31.4985 28.9861L31.4595 29.0516L31.4196 29.1167L31.3789 29.1816L31.3377 29.246L31.2954 29.3103L31.2526 29.3742L31.2089 29.4377L31.1644 29.501L31.1193 29.5638L31.0733 29.6265L31.0266 29.6886L30.9791 29.7504L30.931 29.8119L30.882 29.8729L30.8323 29.9336L30.7819 29.994L30.7308 30.0538L30.6789 30.1133L30.6264 30.1724L30.5731 30.231L30.519 30.2892L30.4643 30.3469L30.4088 30.4043L30.3527 30.4611L30.2959 30.5175L30.2383 30.5735L30.1801 30.629L30.1212 30.6838L30.0616 30.7384L30.0013 30.7924L29.9403 30.8458L29.8787 30.8987L29.8165 30.9512L29.7536 31.0032L29.69 31.0545L29.6258 31.1053L29.5609 31.1557L29.4953 31.2054L29.4292 31.2545L29.3625 31.3032L29.2952 31.3512L29.2271 31.3987L29.1586 31.4455L29.0894 31.4918L29.0196 31.5376L28.9492 31.5826L28.8783 31.6271L28.8067 31.6709L28.7346 31.7142L28.6619 31.7568L28.5887 31.7987L28.5149 31.84L28.4406 31.8807L28.3657 31.9207L28.2902 31.96L28.2144 31.9987L28.1379 32.0367L28.061 32.0741L27.9835 32.1107L27.9056 32.1467L27.8271 32.1819L27.7482 32.2165L27.6688 32.2503L27.5889 32.2834L27.5086 32.3159L27.4279 32.3476L27.3466 32.3785L27.2649 32.4087L27.1828 32.4383L27.1003 32.467L27.0173 32.4951L26.934 32.5224L26.8503 32.5488L26.7662 32.5746L26.6817 32.5995L26.5968 32.6237L26.5115 32.6473L26.4259 32.6699L26.34 32.6918L26.2537 32.7128L26.1671 32.7332L26.0801 32.7526L25.9928 32.7713L25.9052 32.7892L25.8174 32.8063L25.7292 32.8226L25.6407 32.838L25.5521 32.8527L25.463 32.8666L25.3738 32.8795L25.2843 32.8917L25.1947 32.903L25.1047 32.9136L25.0146 32.9233L24.9242 32.932L24.8336 32.9401L24.7429 32.9471L24.6519 32.9535L24.5607 32.9588L24.4695 32.9635L24.378 32.9673L24.2865 32.9701L24.1947 32.972L24.1029 32.9732L24.0109 32.9735L23.9189 32.9729L23.8267 32.9715L23.7344 32.9691L23.6422 32.9659L23.5498 32.9618L23.4572 32.9568L23.3647 32.951L23.2722 32.9443L23.1797 32.9367L23.087 32.9282L22.9945 32.9188L22.9018 32.9085L22.8093 32.8974L22.7167 32.8853L22.6242 32.8725L22.5316 32.8586L22.4392 32.844L22.3468 32.8284L22.2545 32.8119L22.1622 32.7946L22.0701 32.7763L21.978 32.7572L21.8861 32.7371L21.7943 32.7162L21.7025 32.6945L21.6109 32.6718L21.5196 32.6482L21.4283 32.6237L21.3373 32.5984L21.2464 32.5721L21.1556 32.545L21.0652 32.517L20.9748 32.4882L20.8848 32.4584L20.7949 32.4277L20.7053 32.3961L20.616 32.3637L20.5268 32.3304L20.438 32.2962L20.3494 32.2612L20.2612 32.2253L20.1733 32.1885L20.0855 32.1509L19.9983 32.1124L19.9112 32.0729L19.8245 32.0327L19.7383 31.9916L19.6523 31.9496L19.5668 31.9068L19.4816 31.8632L19.3967 31.8186L19.3123 31.7733L19.2282 31.727L19.1447 31.68L19.0615 31.6321L18.9789 31.5834L18.8965 31.5338L18.8147 31.4835L18.7333 31.4323L18.6524 31.3802L18.5722 31.3274L18.4922 31.2737L18.4128 31.2193L18.3339 31.164L18.2556 31.1079L18.1778 31.0511L18.1005 30.9934L18.0238 30.935L17.9476 30.8758L17.872 30.8158L17.797 30.755L17.7226 30.6934L17.6488 30.6311L17.5756 30.568L17.503 30.5042L17.431 30.4396L17.3597 30.3743L17.2889 30.3083L17.219 30.2415L17.1496 30.174L17.0808 30.1057L17.0128 30.0368L16.9455 29.967L16.8789 29.8967L16.8129 29.8257L16.7477 29.7538L16.6831 29.6815L16.6193 29.6083L16.5563 29.5344L16.494 29.46L16.4324 29.3849L16.3716 29.3091L16.3116 29.2326L16.2524 29.1555L16.194 29.0778L16.1363 28.9994L16.0794 28.9204L16.0233 28.8409L15.9681 28.7607L15.9138 28.6799L15.8601 28.5985L15.8075 28.5166L15.7555 28.434L15.7045 28.3509L15.6543 28.2671L15.605 28.1829L15.5565 28.0982L15.509 28.0128L15.4623 27.9269L15.4165 27.8405L15.3716 27.7537L15.3277 27.6662L15.2846 27.5784L15.2425 27.49L15.2013 27.4011L15.161 27.3117L15.1216 27.2219L15.0832 27.1316L15.0458 27.0409L15.0093 26.9496L14.9739 26.858L14.9393 26.766L14.9057 26.6736L14.8731 26.5808L14.8415 26.4875L14.8109 26.3938L14.7813 26.2999L14.7526 26.2054L14.725 26.1107L14.6985 26.0155L14.6728 25.9201L14.6483 25.8243L14.6248 25.7283L14.6022 25.6318L14.5808 25.5351L14.5604 25.438L14.5409 25.3408L14.5226 25.2432L14.5053 25.1453L14.4891 25.0472L14.4738 24.9488L14.4597 24.8503L14.4467 24.7515L14.4347 24.6525L14.4238 24.5532L14.4139 24.4537L14.4052 24.3541L14.3975 24.2543L14.3909 24.1543L14.3854 24.0542L14.3809 23.954L14.3776 23.8535L14.3754 23.7529L14.3743 23.6524L14.3742 23.5516L14.3753 23.4507L14.3776 23.3498L14.3808 23.2487L14.3853 23.1476L14.3908 23.0465L14.3974 22.9453L14.4051 22.8441L14.4139 22.7428L14.4239 22.6416L14.4349 22.5403L14.4472 22.4391L14.4605 22.3378L14.4749 22.2367L14.4905 22.1355L14.5072 22.0344L14.5251 21.9334L14.5439 21.8324L14.564 21.7315L14.5852 21.6307L14.6075 21.53L14.6309 21.4294L14.6554 21.329L14.6811 21.2287L14.7078 21.1285L14.7358 21.0285L14.7648 20.9287L14.795 20.8291L14.8262 20.7295L14.8586 20.6303L14.8921 20.5312L14.9266 20.4324L14.9624 20.3338L14.9992 20.2354L15.0371 20.1374L15.0761 20.0395L15.1163 19.942L15.1576 19.8448L15.2 19.7477L15.2434 19.6511L15.288 19.5548L15.3337 19.4587L15.3804 19.363L15.4282 19.2677L15.4771 19.1728L15.5271 19.0782L15.5781 18.984L15.6303 18.8902L15.6835 18.7968L15.7379 18.7038L15.7932 18.6112L15.8496 18.5191L15.9071 18.4275L15.9656 18.3362L16.0251 18.2454L16.0859 18.1552L16.1476 18.0653L16.2102 17.976L16.2739 17.8872L16.3387 17.799L16.4045 17.7112L16.4713 17.6241L16.5391 17.5374L16.6079 17.4512L16.6777 17.3658L16.7485 17.2808L16.8204 17.1965L16.8933 17.1126L16.967 17.0295L17.0417 16.9469L17.1174 16.865L17.1941 16.7837L17.2718 16.703L17.3504 16.6232L17.4299 16.5438L17.5105 16.4652L17.5918 16.3872L17.6742 16.31L17.7574 16.2334L17.8416 16.1576L17.9266 16.0825L18.0126 16.008L18.0993 15.9344L18.1871 15.8615L18.2757 15.7894L18.3651 15.7179L18.4555 15.6474L18.5466 15.5776L18.6386 15.5085L18.7314 15.4403L18.8251 15.3729L18.9196 15.3063L19.0149 15.2405L19.111 15.1757L19.2078 15.1116L19.3055 15.0483L19.404 14.9859L19.5032 14.9244L19.6031 14.8638L19.7039 14.8041L19.8053 14.7452L19.9076 14.6873L20.0104 14.6302L20.1141 14.5741L20.2184 14.5188L20.3234 14.4645L20.4291 14.4112L20.5355 14.3588L20.6425 14.3074L20.7501 14.2569L20.8585 14.2074L20.9675 14.1588L21.077 14.1112L21.1872 14.0646L21.298 14.0191L21.4095 13.9744L21.5214 13.9308L21.6339 13.8883L21.747 13.8467L21.8607 13.8061L21.9748 13.7666L22.0895 13.7282L22.2049 13.6907L22.3205 13.6543L22.4368 13.619L22.5535 13.5846L22.6707 13.5515L22.7883 13.5193L22.9064 13.4883L23.025 13.4583L23.1439 13.4293L23.2633 13.4015L23.3831 13.3748L23.5033 13.3492L23.6238 13.3246L23.7448 13.3012L23.866 13.279L23.9268 13.2683ZM25.4172 21.5186L24.034 21.8316L23.9527 15.3435L23.8876 15.3574L23.7894 15.3793L23.6914 15.4021L23.594 15.4258L23.4968 15.4503L23.4002 15.4758L23.3036 15.5023L23.208 15.5293L23.1121 15.5575L23.0174 15.5862L22.9225 15.6161L22.8282 15.6468L22.7343 15.6783L22.6408 15.7105L22.5482 15.7436L22.4557 15.7777L22.3636 15.8125L22.2722 15.848L22.1809 15.8846L22.0907 15.9217L22.0006 15.9599L21.9113 15.9986L21.8222 16.0384L21.7338 16.0787L21.6457 16.12L21.5586 16.1619L21.4719 16.2046L21.3857 16.2482L21.3001 16.2924L21.215 16.3374L21.1306 16.3832L21.047 16.4295L20.9634 16.4769L20.8808 16.5247L20.799 16.5734L20.7176 16.6227L20.6367 16.6728L20.5567 16.7236L20.4772 16.7751L20.3984 16.8271L20.3204 16.8799L20.2428 16.9334L20.166 16.9876L20.0899 17.0424L20.0144 17.0978L19.9397 17.1537L19.8658 17.2104L19.7924 17.2678L19.7197 17.3259L19.6479 17.3843L19.5767 17.4435L19.5063 17.5032L19.4366 17.5635L19.3676 17.6245L19.2994 17.686L19.2319 17.7479L19.1651 17.8107L19.0992 17.8737L19.0341 17.9375L18.9697 18.0016L18.9059 18.0666L18.8431 18.1317L18.7811 18.1975L18.7198 18.2638L18.6594 18.3304L18.5996 18.3978L18.541 18.4653L18.4827 18.5337L18.4256 18.6022L18.3691 18.6715L18.3135 18.7411L18.2588 18.811L18.2048 18.8813L18.1518 18.9521L18.0994 19.0235L18.048 19.0951L17.9974 19.1672L17.9478 19.2395L17.8989 19.3123L17.8508 19.3855L17.8038 19.459L17.7573 19.533L17.712 19.607L17.6673 19.6817L17.6235 19.7566L17.5808 19.8317L17.5388 19.9071L17.4977 19.9829L17.4574 20.0592L17.4182 20.1353L17.3797 20.2121L17.3421 20.289L17.3055 20.3661L17.2696 20.4435L17.2347 20.5212L17.2007 20.599L17.1676 20.6771L17.1354 20.7554L17.104 20.834L17.0736 20.9125L17.0441 20.9915L17.0154 21.0705L16.9877 21.1497L16.9608 21.2291L16.9349 21.3087L16.9098 21.3884L16.8858 21.468L16.8625 21.548L16.8401 21.6282L16.8187 21.7083L16.7982 21.7885L16.7785 21.8688L16.7598 21.9493L16.7421 22.0299L16.7251 22.1103L16.7091 22.1909L16.6939 22.2717L16.6798 22.3523L16.6665 22.4329L16.654 22.5138L16.6425 22.5944L16.6319 22.6753L16.6222 22.7559L16.6133 22.8367L16.6054 22.9176L16.5983 22.9982L16.5922 23.0788L16.5869 23.1595L16.5825 23.24L16.579 23.3204L16.5763 23.4008L16.5747 23.4812L16.5737 23.5615L16.5738 23.6416L16.5747 23.7216L16.5765 23.8016L16.5791 23.8813L16.5826 23.961L16.5869 24.0405L16.5922 24.1199L16.5983 24.1991L16.6053 24.2782L16.6131 24.357L16.6217 24.4359L16.6312 24.5142L16.6415 24.5927L16.6527 24.6707L16.6648 24.7487L16.6776 24.8263L16.6913 24.9038L16.7058 24.9812L16.7212 25.0582L16.7374 25.135L16.7543 25.2113L16.7722 25.2877L16.7908 25.3636L16.8102 25.4394L16.8304 25.5146L16.8515 25.59L16.8732 25.6646L16.8958 25.7393L16.9192 25.8134L16.9433 25.8874L16.9683 25.9609L16.994 26.034L17.0205 26.107L17.0477 26.1795L17.0757 26.2516L17.1044 26.3235L17.1339 26.395L17.1641 26.466L17.1951 26.5367L17.2266 26.6069L17.2592 26.6769L17.2923 26.7465L17.3261 26.8155L17.3607 26.8842L17.3959 26.9524L17.432 27.0204L17.4685 27.0877L17.5058 27.1546L17.5438 27.2212L17.5826 27.2873L17.6219 27.3529L17.6619 27.4182L17.7026 27.4827L17.744 27.547L17.7859 27.6108L17.8285 27.674L17.8718 27.7368L17.9156 27.7991L17.9601 27.861L18.0051 27.922L18.0508 27.9829L18.0972 28.0432L18.144 28.1028L18.1916 28.1621L18.2396 28.2208L18.2882 28.2788L18.3374 28.3365L18.3872 28.3936L18.4374 28.45L18.4884 28.506L18.5398 28.5615L18.5916 28.6162L18.6443 28.6705L18.6971 28.7241L18.7506 28.7774L18.8046 28.8299L18.859 28.8818L18.9141 28.9332L18.9695 28.984L19.0254 29.0342L19.0818 29.0837L19.1387 29.1327L19.1961 29.1811L19.2538 29.2288L19.312 29.276L19.3706 29.3226L19.4296 29.3685L19.4891 29.4138L19.5491 29.4585L19.6092 29.5025L19.67 29.5459L19.7311 29.5887L19.7925 29.6309L19.8543 29.6724L19.9165 29.7133L19.979 29.7535L20.0419 29.793L20.105 29.8319L20.1685 29.8702L20.2326 29.9079L20.2966 29.9448L20.3611 29.9811L20.426 30.0168L20.4909 30.0517L20.5562 30.086L20.6221 30.1198L20.688 30.1527L20.7541 30.185L20.8205 30.2166L20.8873 30.2476L20.954 30.2778L21.0214 30.3075L21.0887 30.3365L21.1561 30.3646L21.224 30.3923L21.2921 30.4192L21.3601 30.4454L21.4285 30.471L21.4971 30.4958L21.5659 30.52L21.6346 30.5435L21.7038 30.5663L21.7728 30.5884L21.8421 30.6099L21.9116 30.6307L21.9812 30.6508L22.0508 30.6701L22.1205 30.6888L22.1905 30.7068L22.2604 30.7242L22.3304 30.7408L22.4005 30.7568L22.4705 30.772L22.5407 30.7866L22.6111 30.8005L22.6814 30.8137L22.7517 30.8263L22.822 30.8382L22.8925 30.8494L22.9629 30.8599L23.0334 30.8697L23.1036 30.8788L23.174 30.8872L23.2443 30.8951L23.3148 30.9023L23.3851 30.9086L23.4554 30.9144L23.5256 30.9195L23.5957 30.924L23.6659 30.9277L23.7359 30.9308L23.8057 30.9333L23.8758 30.935L23.9454 30.9361L24.015 30.9366L24.0846 30.9363L24.154 30.9355L24.2235 30.934L24.2927 30.9318L24.3616 30.9291L24.4305 30.9255L24.4995 30.9215L24.5679 30.9167L24.6364 30.9113L24.7046 30.9053L24.7727 30.8987L24.8407 30.8913L24.9082 30.8835L24.9759 30.875L25.0431 30.8658L25.1101 30.856L25.1772 30.8457L25.2438 30.8346L25.3101 30.823L25.3764 30.8108L25.4424 30.7979L25.5079 30.7845L25.5732 30.7705L25.6385 30.7559L25.7034 30.7407L25.7679 30.725L25.8323 30.7086L25.8962 30.6917L25.9602 30.6741L26.0236 30.656L26.0864 30.6374L26.1496 30.618L26.212 30.5983L26.2741 30.578L26.3359 30.5571L26.3974 30.5357L26.4587 30.5136L26.5195 30.4911L26.5799 30.468L26.64 30.4445L26.6998 30.4203L26.7593 30.3957L26.8181 30.3705L26.8769 30.3449L26.9351 30.3187L26.9928 30.292L27.0505 30.2649L27.1073 30.2372L27.1641 30.2091L27.2204 30.1803L27.2762 30.1512L27.3315 30.1217L27.3866 30.0916L27.4412 30.061L27.4952 30.03L27.5488 29.9985L27.6021 29.9666L27.6549 29.9343L27.7074 29.9015L27.7592 29.8683L27.8107 29.8345L27.8617 29.8004L27.9121 29.766L27.9621 29.731L28.0117 29.6957L28.0608 29.6599L28.1094 29.6237L28.1576 29.5871L28.2051 29.5503L28.2523 29.513L28.2989 29.4753L28.345 29.4373L28.3907 29.3988L28.4358 29.36L28.4804 29.3209L28.5244 29.2815L28.568 29.2416L28.6111 29.2013L28.6537 29.1609L28.6957 29.1201L28.7371 29.0788L28.7781 29.0375L28.8186 28.9955L28.8583 28.9536L28.8978 28.9111L28.9366 28.8684L28.9747 28.8255L29.0127 28.7821L29.0496 28.7387L29.0863 28.6949L29.1225 28.6509L29.1579 28.6066L29.1929 28.5619L29.2272 28.5173L29.2611 28.472L29.2944 28.4267L29.3271 28.3813L29.3592 28.3354L29.3909 28.2895L29.4218 28.2434L29.4522 28.197L29.4821 28.1504L29.5114 28.1036L29.5402 28.0567L29.5683 28.0095L29.5959 27.9622L29.6229 27.9146L29.6493 27.8671L29.6751 27.8193L29.7004 27.7713L29.7251 27.7233L29.7493 27.6749L29.7728 27.6266L29.7957 27.578L29.818 27.5295L29.8399 27.4807L29.861 27.4319L29.8818 27.3827L29.9017 27.334L29.9212 27.2844L29.94 27.2357L29.9583 27.1861L29.9761 27.1366L29.9931 27.0872L30.0097 27.0377L30.0256 26.9883L30.0411 26.9383L30.0558 26.889L30.0702 26.8388L30.0837 26.7895L30.0968 26.7395L30.1093 26.6895L30.1212 26.6399L30.1324 26.5903L30.1432 26.5401L30.1534 26.4904L30.163 26.4403L30.172 26.3908L30.1806 26.341L30.1885 26.2911L30.1958 26.2412L30.2025 26.1915L30.2088 26.1419L30.2144 26.0925L30.2194 26.0426L30.224 25.9932L30.228 25.9436L30.2313 25.8942L30.2342 25.8449L30.2365 25.7957L30.2382 25.7467L30.2394 25.6974L30.2401 25.6482L30.2402 25.5994L30.2397 25.5507L30.2388 25.502L30.2372 25.4535L30.2352 25.4047L30.2325 25.3569L30.2294 25.308L30.2258 25.2604L30.2216 25.2126L30.2169 25.1644L30.2116 25.1168L30.206 25.0696L30.1996 25.0218L30.1929 24.975L30.1856 24.9278L30.1779 24.8813L30.1695 24.8344L30.1608 24.7878L30.1515 24.7417L30.1418 24.6957L30.1315 24.6495L30.1207 24.604L30.1095 24.5584L30.0978 24.5132L30.0856 24.4683L30.0728 24.423L30.0598 24.3787L30.0462 24.334L30.0321 24.29L30.0176 24.246L30.0026 24.2024L29.9871 24.1588L29.9712 24.1154L29.955 24.0727L29.9382 24.0301L29.9209 23.9874L29.9032 23.9453L29.8851 23.903L29.8668 23.8618L29.8477 23.8201L29.8285 23.7791L29.8087 23.7384L29.7885 23.6977L29.768 23.6575L29.747 23.6175L29.7256 23.5777L29.7039 23.5384L29.6817 23.4993L29.6593 23.4605L29.6363 23.422L29.6129 23.3838L29.5894 23.346L29.5654 23.3085L29.5409 23.2711L29.5162 23.2344L29.4911 23.1978L29.4657 23.1616L29.4399 23.1255L29.4138 23.0901L29.3873 23.0548L29.3606 23.0199L29.3334 22.9853L29.306 22.9511L29.2784 22.9173L29.2502 22.8836L29.2218 22.8505L29.1932 22.8177L29.1642 22.7852L29.135 22.753L29.1056 22.7213L29.0757 22.69L29.0455 22.659L29.0152 22.6282L28.9846 22.5979L28.9536 22.568L28.9224 22.5384L28.8911 22.5093L28.8594 22.4805L28.8276 22.4521L28.7952 22.424L28.7631 22.3963L28.7304 22.369L28.6977 22.3421L28.6645 22.3155L28.6313 22.2895L28.5978 22.2637L28.5642 22.2384L28.5304 22.2134L28.4963 22.1887L28.4621 22.1646L28.4276 22.1408L28.393 22.1174L28.3583 22.0944L28.3234 22.0717L28.2883 22.0495L28.253 22.0277L28.2175 22.0062L28.1821 21.9852L28.1462 21.9645L28.1105 21.9443L28.0746 21.9245L28.0385 21.9051L28.0021 21.886L27.9659 21.8674L27.9295 21.8491L27.8929 21.8312L27.8564 21.8138L27.8194 21.7967L27.7827 21.7801L27.7458 21.764L27.7088 21.748L27.6717 21.7326L27.6344 21.7175L27.5974 21.7029L27.56 21.6887L27.5226 21.6749L27.4852 21.6615L27.4478 21.6484L27.4103 21.6358L27.3728 21.6235L27.3352 21.6116L27.2978 21.6002L27.2601 21.5891L27.2224 21.5784L27.185 21.5682L27.1471 21.5583L27.1096 21.5488L27.0719 21.5398L27.0343 21.531L26.9966 21.5227L26.959 21.5148L26.9213 21.5072L26.8838 21.5001L26.8463 21.4933L26.8089 21.4869L26.7712 21.4809L26.734 21.4753L26.6963 21.4701L26.6592 21.4652L26.6218 21.4607L26.5846 21.4566L26.5476 21.4528L26.5104 21.4495L26.4735 21.4465L26.4365 21.4438L26.3997 21.4416L26.3628 21.4396L26.3261 21.4382L26.2897 21.437L26.2531 21.4361L26.2168 21.4357L26.1804 21.4355L26.1443 21.4359L26.1082 21.4365L26.0723 21.4374L26.0364 21.4387L26.0009 21.4403L25.9651 21.4424L25.9298 21.4446L25.8946 21.4473L25.8594 21.4503L25.8245 21.4536L25.7894 21.4573L25.7549 21.4612L25.7203 21.4655L25.686 21.4702L25.6517 21.4752L25.6177 21.4804L25.5837 21.486L25.5503 21.4919L25.5165 21.4982L25.4833 21.5046L25.4501 21.5115L25.4172 21.5186Z" fill="#B5B5B5"/>
</svg>
