<svg width="168" height="42" viewBox="0 0 168 42" fill="none" xmlns="http://www.w3.org/2000/svg">
<path d="M27.4805 10.2375H30.1207V27.6375H38.0411V30.1375H27.4805V10.2375ZM46.2651 10.2375C47.8316 10.2375 49.3629 10.6774 50.6654 11.5015C51.9679 12.3256 52.9831 13.4969 53.5826 14.8674C54.182 16.2379 54.3388 17.7459 54.0333 19.2006C53.7277 20.6555 52.9734 21.9919 51.8656 23.0408C50.7579 24.0898 49.3466 24.804 47.8102 25.0934C46.2739 25.3828 44.6814 25.2343 43.2341 24.6666C41.7867 24.0989 40.5498 23.1376 39.6795 21.9043C38.8092 20.6709 38.3447 19.2209 38.3447 17.7375C38.3447 16.7526 38.5496 15.7773 38.9476 14.8674C39.3456 13.9574 39.929 13.1306 40.6646 12.4342C41.4 11.7377 42.2731 11.1853 43.2341 10.8084C44.1949 10.4315 45.225 10.2375 46.2651 10.2375ZM46.2651 22.7375C47.3094 22.7375 48.3303 22.4443 49.1986 21.8949C50.067 21.3454 50.7438 20.5645 51.1434 19.6509C51.5431 18.7373 51.6476 17.732 51.4438 16.762C51.2401 15.7921 50.7372 14.9012 49.9987 14.202C49.2603 13.5027 48.3195 13.0265 47.2952 12.8336C46.2709 12.6406 45.2093 12.7396 44.2444 13.1181C43.2796 13.4965 42.4548 14.1374 41.8747 14.9596C41.2945 15.7819 40.9848 16.7486 40.9848 17.7375C40.9918 19.0592 41.5511 20.3246 42.5406 21.2569C43.5302 22.1891 44.8692 22.7125 46.2651 22.7125V22.7375ZM40.9848 27.6625H51.5453V30.1625H40.9848V27.6625ZM74.7785 30.1625H72.1383V28.375C70.4357 29.5035 68.4084 30.11 66.3301 30.1125C64.5579 30.1238 62.8112 29.7125 61.251 28.9166C59.6907 28.1206 58.367 26.9658 57.4021 25.5583C56.437 24.1508 55.8614 22.5359 55.7286 20.8624C55.5957 19.189 55.9097 17.5108 56.6417 15.9825C57.3737 14.4541 58.5001 13.1248 59.917 12.117C61.3341 11.1091 62.9962 10.4551 64.7502 10.2154C66.5043 9.9755 68.2939 10.1576 69.954 10.7448C71.6143 11.3319 73.0918 12.3051 74.2504 13.575L72.31 15.2125C71.4287 14.2795 70.3149 13.5703 69.07 13.1494C67.8252 12.7284 66.4889 12.6091 65.1829 12.8025C63.8769 12.9959 62.6428 13.4957 61.593 14.2564C60.5433 15.0171 59.7113 16.0144 59.1729 17.1576C58.6345 18.3007 58.4068 19.5533 58.5105 20.8011C58.6143 22.049 59.0461 23.2524 59.7668 24.3016C60.4876 25.3509 61.4741 26.2127 62.6366 26.8085C63.7991 27.4042 65.1007 27.715 66.4225 27.7125C67.5194 27.7146 68.604 27.4924 69.602 27.0609C70.5998 26.6294 71.4875 25.9989 72.2043 25.2125H65.076V22.7125H74.8049L74.7785 30.1625ZM84.4941 10.2875C86.0607 10.2875 87.5919 10.7274 88.8945 11.5515C90.197 12.3756 91.2122 13.5469 91.8117 14.9174C92.4111 16.2879 92.5679 17.7959 92.2623 19.2506C91.9567 20.7055 91.2024 22.0419 90.0947 23.0907C88.987 24.1398 87.5757 24.854 86.0393 25.1434C84.503 25.4328 82.9105 25.2843 81.4632 24.7166C80.0158 24.1489 78.7789 23.1876 77.9086 21.9543C77.0383 20.7209 76.5738 19.2709 76.5738 17.7875C76.5668 16.7963 76.7674 15.8136 77.164 14.8962C77.5605 13.9789 78.1452 13.145 78.8841 12.443C79.6231 11.7409 80.5017 11.1845 81.4692 10.8059C82.4367 10.4274 83.4737 10.2341 84.5206 10.2375L84.4941 10.2875ZM84.4941 22.7875C85.5385 22.7875 86.5594 22.4942 87.4277 21.9449C88.2961 21.3954 88.9729 20.6145 89.3725 19.7009C89.7722 18.7872 89.8767 17.782 89.6729 16.812C89.4692 15.8421 88.9663 14.9513 88.2278 14.252C87.4894 13.5528 86.5486 13.0765 85.5243 12.8836C84.5 12.6906 83.4384 12.7896 82.4735 13.1681C81.5087 13.5465 80.6839 14.1874 80.1037 15.0096C79.5236 15.8319 79.2139 16.7986 79.2139 17.7875C79.2347 19.1049 79.8038 20.3613 80.7976 21.2835C81.7912 22.2056 83.1292 22.7193 84.5206 22.7125L84.4941 22.7875ZM79.2139 27.7125H89.7744V30.2125H79.2139V27.7125ZM95.2263 10.2375H97.8664V30.1125H95.2263V10.2375ZM101.523 10.2375H104.163C104.299 10.2239 104.436 10.2239 104.572 10.2375C105.678 10.1239 106.797 10.2321 107.855 10.555C108.914 10.878 109.889 11.4084 110.716 12.1117C111.544 12.8151 112.206 13.6758 112.659 14.6375C113.113 15.5993 113.347 16.6406 113.347 17.6938C113.347 18.7469 113.113 19.7882 112.659 20.75C112.206 21.7117 111.544 22.5724 110.716 23.2758C109.889 23.9791 108.914 24.5095 107.855 24.8325C106.797 25.1554 105.678 25.2636 104.572 25.15H104.163V30.15H101.523V10.2375ZM104.163 12.7375V22.625H104.572C105.318 22.719 106.076 22.6611 106.797 22.455C107.517 22.249 108.182 21.8996 108.748 21.4304C109.314 20.9611 109.767 20.3828 110.078 19.734C110.389 19.0853 110.55 18.3811 110.55 17.6687C110.55 16.9564 110.389 16.2523 110.078 15.6035C109.767 14.9548 109.314 14.3764 108.748 13.9071C108.182 13.4378 107.517 13.0885 106.797 12.8824C106.076 12.6764 105.318 12.6185 104.572 12.7125C104.429 12.7266 104.287 12.756 104.15 12.8L104.163 12.7375ZM123.185 11.675L121.232 13.1375C120.895 12.804 120.464 12.5685 119.99 12.4587C119.517 12.349 119.02 12.3695 118.559 12.5179C118.097 12.6661 117.69 12.9361 117.384 13.2961C117.079 13.6561 116.889 14.0911 116.836 14.55V14.75C116.836 15.85 117.641 16.5875 119.212 16.6875C125.258 17.0375 128.03 19.725 128.03 23.275V23.5C127.874 24.905 127.295 26.238 126.362 27.3405C125.429 28.443 124.181 29.2684 122.767 29.7188C121.353 30.169 119.832 30.2253 118.385 29.8806C116.938 29.5361 115.626 28.8053 114.605 27.775L116.625 26.3C117.095 26.7771 117.669 27.1516 118.307 27.3978C118.945 27.6438 119.632 27.7555 120.321 27.725C121.592 27.7885 122.84 27.3844 123.805 26.597C124.769 25.8098 125.375 24.7001 125.495 23.5V23.325C125.495 19.9875 122.037 19.375 119.04 19.1C116.268 18.85 114.275 17.2125 114.275 14.85V14.75C114.372 13.52 114.965 12.3725 115.931 11.5445C116.896 10.7164 118.16 10.2709 119.463 10.3C120.153 10.2808 120.839 10.3986 121.478 10.6463C122.117 10.8939 122.694 11.2656 123.172 11.7375L123.185 11.675ZM138.366 27.575C141.653 27.575 144.254 24.2125 144.254 20.075V10.075H146.894V20.075C146.894 25.575 143.092 30.0125 138.419 30.0125C133.746 30.0125 129.944 25.575 129.944 20.075V10.075H132.584V20.075C132.479 24.275 135.079 27.6375 138.353 27.6375L138.366 27.575ZM167.157 30.075H164.516V17.7L158.431 25.2L152.345 17.7V30.1125H149.705V10.2375L158.418 21.1L167.13 10.2375L167.157 30.075Z" fill="#B5B5B5"/>
<path d="M14.8076 7.25001C14.8076 5.44654 14.0511 3.71692 12.7044 2.44169C11.3576 1.16644 9.53103 0.450012 7.62647 0.450012C5.7219 0.450012 3.89536 1.16644 2.54862 2.44169C1.20189 3.71692 0.445312 5.44654 0.445312 7.25001V27.8125L6.3592 31.825V41.6H8.89373V31.825L14.8076 27.8125V7.25001ZM12.2731 18.75L8.89373 21.95V18.95L12.2731 15.75V18.75ZM3.03264 15.75L6.41201 18.95V21.95L3.03264 18.75V15.75ZM12.2731 12.35L7.62647 16.75L2.97984 12.25V9.25001L7.62647 13.65L12.2731 9.25001V12.35ZM7.62647 2.85001C8.64839 2.85429 9.64066 3.17567 10.4513 3.76492C11.2619 4.35417 11.8462 5.1788 12.1147 6.11251L7.62647 10.35L3.13825 6.11251C3.3969 5.16951 3.97697 4.3337 4.7885 3.73477C5.60002 3.13584 6.59759 2.80725 7.62647 2.8V2.85001ZM2.97984 26.6V22.1L6.3592 25.3V28.875L2.97984 26.6ZM8.89373 28.8875V25.3L12.2731 22.1V26.5875L8.89373 28.8875Z" fill="#B5B5B5"/>
</svg>
