<svg width="213" height="49" viewBox="0 0 213 49" fill="none" xmlns="http://www.w3.org/2000/svg">
<path d="M63.7619 33.9443H78.788V29.6586H69.1025V13.5157H63.7619V33.9443Z" fill="#B5B5B5"/>
<path d="M87.6904 31.0871C85.5481 31.0871 84.4317 29.3157 84.4317 26.6586C84.4317 24.0014 85.5481 22.2014 87.6904 22.2014C89.8327 22.2014 90.9792 24.0014 90.9792 26.6586C90.9792 29.3157 89.8327 31.0871 87.6904 31.0871ZM87.7205 34.4014C92.6991 34.4014 95.9577 31.0586 95.9577 26.6586C95.9577 22.2586 92.6991 18.9157 87.7205 18.9157C82.7722 18.9157 79.4532 22.2586 79.4532 26.6586C79.4532 31.0586 82.7722 34.4014 87.7205 34.4014Z" fill="#B5B5B5"/>
<path d="M104.575 39.0014C106.868 39.0014 108.89 38.5157 110.248 37.3729C111.485 36.3157 112.3 34.7157 112.3 32.5157V19.3157H107.593V20.8871H107.532C106.627 19.6586 105.239 18.8871 103.187 18.8871C99.3553 18.8871 96.7001 21.9157 96.7001 26.2014C96.7001 30.6871 99.9286 33.1443 103.399 33.1443C105.269 33.1443 106.446 32.43 107.351 31.4586H107.472V32.9157C107.472 34.6871 106.597 35.7157 104.515 35.7157C102.886 35.7157 102.071 35.0586 101.799 34.2871H97.032C97.5148 37.3443 100.321 39.0014 104.575 39.0014ZM104.545 29.6871C102.705 29.6871 101.498 28.2586 101.498 26.0586C101.498 23.83 102.705 22.4014 104.545 22.4014C106.597 22.4014 107.683 24.0586 107.683 26.03C107.683 28.0871 106.687 29.6871 104.545 29.6871Z" fill="#B5B5B5"/>
<path d="M121.977 31.0871C119.835 31.0871 118.719 29.3157 118.719 26.6586C118.719 24.0014 119.835 22.2014 121.977 22.2014C124.12 22.2014 125.266 24.0014 125.266 26.6586C125.266 29.3157 124.12 31.0871 121.977 31.0871ZM122.008 34.4014C126.986 34.4014 130.245 31.0586 130.245 26.6586C130.245 22.2586 126.986 18.9157 122.008 18.9157C117.059 18.9157 113.74 22.2586 113.74 26.6586C113.74 31.0586 117.059 34.4014 122.008 34.4014Z" fill="#B5B5B5"/>
<path d="M131.681 33.9443H136.599V19.3157H131.681V33.9443ZM131.681 17.2871H136.599V13.5157H131.681V17.2871Z" fill="#B5B5B5"/>
<path d="M138.734 38.7729H143.653V32.43H143.713C144.678 33.6586 146.097 34.4014 148.088 34.4014C152.131 34.4014 154.817 31.3729 154.817 26.63C154.817 22.23 152.312 18.8871 148.209 18.8871C146.097 18.8871 144.588 19.7729 143.532 21.0871H143.441V19.3157H138.734V38.7729ZM146.821 30.8014C144.709 30.8014 143.502 29.1729 143.502 26.8014C143.502 24.43 144.588 22.63 146.73 22.63C148.842 22.63 149.838 24.2871 149.838 26.8014C149.838 29.2871 148.691 30.8014 146.821 30.8014Z" fill="#B5B5B5"/>
<path d="M162.824 34.4014C166.867 34.4014 169.854 32.7443 169.854 29.5443C169.854 25.8014 166.656 25.1443 163.94 24.7157C161.979 24.3729 160.229 24.23 160.229 23.2014C160.229 22.2871 161.164 21.8586 162.371 21.8586C163.729 21.8586 164.664 22.2586 164.845 23.5729H169.371C169.13 20.6871 166.776 18.8871 162.401 18.8871C158.75 18.8871 155.733 20.4871 155.733 23.5729C155.733 27.0014 158.599 27.6871 161.285 28.1157C163.337 28.4586 165.207 28.6014 165.207 29.9157C165.207 30.8586 164.272 31.3729 162.793 31.3729C161.164 31.3729 160.138 30.6586 159.957 29.2014H155.311C155.461 32.43 158.298 34.4014 162.824 34.4014Z" fill="#B5B5B5"/>
<path d="M176.535 34.3729C178.677 34.3729 180.035 33.5729 181.151 32.1443H181.242V33.9443H185.949V19.3157H181.03V27.4872C181.03 29.23 180.005 30.43 178.315 30.43C176.746 30.43 175.992 29.5443 175.992 27.9443V19.3157H171.104V28.9157C171.104 32.1729 172.974 34.3729 176.535 34.3729Z" fill="#B5B5B5"/>
<path d="M188.087 33.9443H193.005V25.7443C193.005 24.0014 193.91 22.7729 195.449 22.7729C196.927 22.7729 197.621 23.6871 197.621 25.2586V33.9443H202.54V25.7443C202.54 24.0014 203.415 22.7729 204.984 22.7729C206.462 22.7729 207.156 23.6871 207.156 25.2586V33.9443H212.074V24.43C212.074 21.1443 210.324 18.8871 206.824 18.8871C204.833 18.8871 203.173 19.6871 201.966 21.4586H201.906C201.121 19.8871 199.583 18.8871 197.561 18.8871C195.328 18.8871 193.85 19.8871 192.884 21.4014H192.794V19.3157H188.087V33.9443Z" fill="#B5B5B5"/>
<path fill-rule="evenodd" clip-rule="evenodd" d="M25.8246 0.145157C39.983 0.145157 51.4606 11.0136 51.4606 24.4205C51.4606 37.8275 39.983 48.696 25.8246 48.696C11.6661 48.696 0.188477 37.8275 0.188477 24.4205C0.188477 11.0136 11.6661 0.145157 25.8246 0.145157ZM50.4766 24.4205C50.4766 11.5282 39.4395 1.07685 25.8246 1.07685C24.7263 1.07685 23.645 1.14485 22.5846 1.27665C23.2697 1.21993 23.9629 1.19098 24.6634 1.19098C37.6732 1.19098 48.2198 11.1777 48.2198 23.497C48.2198 35.8162 37.6732 45.803 24.6634 45.803C12.3467 45.803 2.23771 36.8519 1.1957 25.4446C1.76176 37.8618 12.5719 47.7642 25.8246 47.7642C39.4395 47.7642 50.4766 37.3129 50.4766 24.4205ZM47.2358 23.497C47.2358 11.6923 37.1299 2.12268 24.6634 2.12268C23.6513 2.12268 22.6545 2.18578 21.6776 2.30803C22.2791 2.2601 22.8877 2.23565 23.5024 2.23565C35.3636 2.23565 44.979 11.3407 44.979 22.5723C44.979 33.8039 35.3636 42.9089 23.5024 42.9089C12.2874 42.9089 3.08008 34.7688 2.11031 24.3876C2.60337 35.7793 12.5122 44.8713 24.6634 44.8713C37.1299 44.8713 47.2358 35.3017 47.2358 23.497ZM23.5024 3.16735C34.8201 3.16735 43.9951 11.8552 43.9951 22.5723C43.9951 33.2893 34.8201 41.9771 23.5024 41.9771C12.4469 41.9771 3.43605 33.6871 3.02451 23.3137C3.91304 32.6768 12.2223 40.0148 22.3415 40.0148C33.0533 40.0148 41.737 31.792 41.737 21.6487C41.737 11.5054 33.0533 3.28263 22.3415 3.28263C21.7873 3.28263 21.2385 3.30465 20.6962 3.34778C21.6137 3.22881 22.5504 3.16735 23.5024 3.16735ZM40.753 21.6487C40.753 12.02 32.5099 4.21434 22.3415 4.21434C21.4823 4.21434 20.6369 4.27005 19.8091 4.37788C20.2611 4.34438 20.7179 4.32732 21.1791 4.32732C30.7424 4.32732 38.4949 11.6683 38.4949 20.7241C38.4949 29.7796 30.7424 37.1207 21.1791 37.1207C12.178 37.1207 4.78094 30.6173 3.94249 22.3019C4.30523 31.628 12.4039 39.0831 22.3415 39.0831C32.5099 39.0831 40.753 31.2775 40.753 21.6487ZM21.1791 5.25902C30.1989 5.25902 37.5109 12.183 37.5109 20.7241C37.5109 29.2651 30.1989 36.189 21.1791 36.189C12.337 36.189 5.13602 29.5352 4.85574 21.2269C5.61274 28.5248 12.1122 34.2267 20.0181 34.2267C28.4328 34.2267 35.2541 27.7673 35.2541 19.7993C35.2541 11.8313 28.4328 5.37198 20.0181 5.37198C19.6322 5.37198 19.2497 5.38556 18.871 5.41225C19.6251 5.31125 20.3956 5.25902 21.1791 5.25902ZM34.2702 19.7993C34.2702 12.3458 27.8893 6.30368 20.0181 6.30368C19.2996 6.30368 18.5935 6.35403 17.9036 6.45119C18.2185 6.42984 18.5364 6.41897 18.8572 6.41897C26.1224 6.41897 32.0122 11.9961 32.0122 18.8757C32.0122 25.7555 26.1224 31.3325 18.8572 31.3325C12.0491 31.3325 6.44901 26.4355 5.77096 20.1583C5.97197 27.4458 12.2737 33.295 20.0181 33.295C27.8893 33.295 34.2702 27.2527 34.2702 19.7993ZM18.8572 7.35067C25.5791 7.35067 31.0282 12.5106 31.0282 18.8757C31.0282 25.241 25.5791 30.4008 18.8572 30.4008C12.2207 30.4008 6.8249 25.3714 6.68863 19.1182C7.30168 24.361 11.996 28.4385 17.6961 28.4385C23.8128 28.4385 28.7713 23.7431 28.7713 17.9511C28.7713 12.159 23.8128 7.46363 17.6961 7.46363C17.4622 7.46363 17.23 7.4705 16.9996 7.48404C17.6052 7.39622 18.2255 7.35067 18.8572 7.35067ZM27.7875 17.9511C27.7875 12.6736 23.2694 8.39534 17.6961 8.39534C17.1364 8.39534 16.5874 8.43848 16.0525 8.52144C16.2119 8.51349 16.3723 8.50947 16.5338 8.50947C21.5018 8.50947 25.5293 12.3231 25.5293 17.0275C25.5293 21.7319 21.5018 25.5456 16.5338 25.5456C11.9401 25.5456 8.15055 22.2849 7.60557 18.0744C7.67535 23.2951 12.1663 27.5068 17.6961 27.5068C23.2694 27.5068 27.7875 23.2286 27.7875 17.9511ZM16.5338 9.44116C20.9584 9.44116 24.5454 12.8376 24.5454 17.0275C24.5454 21.2174 20.9584 24.6138 16.5338 24.6138C12.1091 24.6138 8.52221 21.2174 8.52221 17.0275C8.52221 17.0175 8.52224 17.0074 8.52228 16.9974C8.98294 20.1902 11.8745 22.6504 15.3728 22.6504C19.1916 22.6504 22.2873 19.7189 22.2873 16.1029C22.2873 12.4867 19.1916 9.55531 15.3728 9.55531C15.2864 9.55531 15.2004 9.5568 15.1148 9.55978C15.5753 9.48184 16.0496 9.44116 16.5338 9.44116ZM21.3033 16.1029C21.3033 13.0013 18.6482 10.487 15.3728 10.487C12.0974 10.487 9.4422 13.0013 9.4422 16.1029C9.4422 19.2043 12.0974 21.7186 15.3728 21.7186C18.6482 21.7186 21.3033 19.2043 21.3033 16.1029Z" fill="#B5B5B5"/>
</svg>
